<?xml version="1.0" standalone="no"?>
<!DOCTYPE svg PUBLIC "-//W3C//DTD SVG 1.1//EN" "http://www.w3.org/Graphics/SVG/1.1/DTD/svg11.dtd">
<svg xmlns="http://www.w3.org/2000/svg">
  <defs>
    <font id="Outfit" horiz-adv-x="560">
      <font-face font-family="Outfit Thin ExtraLight" units-per-em="1000" panose-1="0 0 0 0 0 0 0 0 0 0" ascent="1000" descent="-260" alphabetic="0" />
      <glyph unicode=" " glyph-name="gid158" horiz-adv-x="223" />
      <glyph unicode="!" glyph-name="gid165" horiz-adv-x="260" d="M109,197l-9,505h58l-9-505H109ZM128-10Q107-10 93.5,4.5T80,39T93.5,73.5T128,88t34.5-14.5T176,39T162.5,4.5T128-10Z" />
      <glyph unicode="&quot;" glyph-name="gid195" horiz-adv-x="348" d="M219,502L205,702h60L251,502H219ZM97,502L84,702h59L129,502H97Z" />
      <glyph unicode="#" glyph-name="gid172" horiz-adv-x="637" d="M348,0l97,682h46L393,0H348ZM59,223v41H548V223H59ZM137,0l98,682h45L182,0H137ZM88,430v41H577V430H88Z" />
      <glyph unicode="$" glyph-name="gid209" horiz-adv-x="595" d="M303-10q-76,0-132,30.5T74,105l36,36q38-53 85.5-78T305,38q68,0 111,33t43,93q0,45-18.5,73t-49,46t-67,32t-73,28.5t-67.5,36T135,435t-18,86t24.5,90.5T209,671t100,21q63,0 113-25.5T507,595l-36-35q-32,40-71.5,62T308,644q-63,0-101.5-31.5T168,524q0-42 18.5-68T236,412.5T303.5,382t73-28T444,316.5T493.5,259T512,170q0-87-56.5-133.5T303-10Zm-10-90V782h40V-100H293Z" />
      <glyph unicode="%" glyph-name="gid226" horiz-adv-x="664" d="M86,0L524,682h54L140,0H86ZM456-10q-37,0-68.5,18.5T337,58.5T318,128q0,39 18.5,70T387,247.5T456,266q39,0 70.5-18.5T577,198t19-70q0-38-19-69.5t-50.5-50T456-10Zm0,43q40,0 67,26.5T550,129q0,41-27.5,67.5T456,223t-65.5-26.5T364,129q0-43 26.5-69.5T456,33ZM207,416q-38,0-69,18T88,484T69,554q0,39 18.5,70t50,49T207,691t69.5-18T327,624t19-70q0-38-18.5-70t-50-50T207,416Zm-1,43q41,0 67.5,26.5T300,555q0,41-27.5,67T206,648q-38,0-64.5-26T115,555q0-43 26.5-69.5T206,459Z" />
      <glyph unicode="&amp;" glyph-name="gid198" horiz-adv-x="638" d="M556,0L224,342q-43,43-63,84t-20,87q0,53 23.5,93T230,669t96,23q38,0 69.5-11T452,650.5T494,603l-37-35q-24,36-56,55.5T327,643q-60,0-97-36t-37-96q0-39 17-71t57-73L622,0H556ZM288-10q-63,0-111.5,26t-76,71T73,191q0,63 34,116.5T200,389l27-33q-46-22-74.5-66.5T124,191q0-45 21.5-79t59-53.5T290,39q55,0 99,25t67,67l34-37q-19-31-50.5-54.5T369.5,3T288-10Z" />
      <glyph unicode="&apos;" glyph-name="gid196" horiz-adv-x="226" d="M97,502L84,702h59L129,502H97Z" />
      <glyph unicode="(" glyph-name="gid179" horiz-adv-x="310" d="M238-111Q179-65 139,1T78.5,145.5T58,307T78.5,468.5T139,613t99,112l31-29q-82-66-123.5-167T104,307q0-120 41.5-221T269-82l-31-29Z" />
      <glyph unicode=")" glyph-name="gid180" horiz-adv-x="309" d="M71-111L41-82Q122-15 164,86t42,221q0,121-42,222T41,696l30,29q59-46 99-112t61-144.5T252,307T231,145.5T170,1T71-111Z" />
      <glyph unicode="*" glyph-name="gid171" horiz-adv-x="487" d="M240,373L226,532L86,450L63,495l151,62L90,662l36,35L234,576l64,147l46-22L259,564l164-13l-7-50L254,537l37-157l-51-7Z" />
      <glyph unicode="+" glyph-name="gid214" horiz-adv-x="531" d="M70,311v44H462V311H70ZM243,539h46V127H243V539Z" />
      <glyph unicode="," glyph-name="gid161" horiz-adv-x="272" d="M90-96L142,7l20,4q-3-8-9.5-13.5T135-8Q118-8 104.5,5T91,38q0,21 15,35.5T142,88q19,0 33.5-14.5T190,38q0-9-2.5-20.5T176-12L124-114L90-96Z" />
      <glyph unicode="-" glyph-name="gid175" horiz-adv-x="460" d="M75,229v48H384V229H75Z" />
      <glyph unicode="." glyph-name="gid160" horiz-adv-x="289" d="M144-10q-20,0-34,15T96,39q0,21 14,35t34,14q21,0 35-14t14-35q0-19-14-34T144-10Z" />
      <glyph unicode="/" glyph-name="gid173" horiz-adv-x="369" d="M25-40L297,718h47L72-40H25Z" />
      <glyph unicode="0" glyph-name="gid130" horiz-adv-x="658" d="M331-10q-75,0-137,43.5T95.5,156T59,342q0,108 36,186t97.5,121T328,692q76,0 137.5-43T563,527.5T599,341q0-107-36-186T466,33T331-10Zm-2,50q62,0 111,35.5T517.5,179T546,342T517.5,504T440,607T328,643q-61,0-110-36T140.5,504T112,342t28.5-163T218,75.5T329,40Z" />
      <glyph unicode="1" glyph-name="gid131" horiz-adv-x="330" d="M188,0V682h51V0H188ZM40,635v47H229V635H40Z" />
      <glyph unicode="2" glyph-name="gid132" horiz-adv-x="540" d="M43,34L296,296q51,52 77.5,86.5T410,445t10,59q0,65-40.5,102T271,643q-59,0-103-27T90,536L52,570q41,60 95,91t125,31q61,0 105.5-23.5T447,603t25-100q0-40-11.5-73.5t-40-71T339,267L114,37L43,34ZM43,0V34L84,47H490V0H43Z" />
      <glyph unicode="3" glyph-name="gid133" horiz-adv-x="533" d="M249-10q-65,0-118.5,26T41,91l36,35q27-41 72-64T249,39q52,0 91.5,20.5t62,58T425,204q0,51-22.5,88.5t-62.5,58T246,371q-17,0-33.5-2T177,362l17,28q14,11 33,15.5t43,4.5q59,0 106-26.5T450.5,310T478,203q0-63-29.5-111t-81-75T249-10ZM177,362v33L410,654l60-5L233,388l-56-26ZM70,635v47H470V649l-46-14H70Z" />
      <glyph unicode="4" glyph-name="gid134" horiz-adv-x="595" d="M43,217L303,682h59L97,217H43Zm0-34v34l22,13H553V183H43ZM397,0V460h51V0H397Z" />
      <glyph unicode="5" glyph-name="gid135" horiz-adv-x="534" d="M249-10q-66,0-119,26T41,91l36,35q27-41 71.5-64T248,39q53,0 93,21t63.5,59.5T428,209q0,53-22.5,91.5t-61.5,60T255,382q-44,0-82-13t-66-38l-4,35q19,21 43,33.5t52.5,19T260,425q68,0 117-28t76.5-77.5T481,207T450.5,95T368,18T249-10ZM107,331L80,359l29,323h49L126,356l-19-25Zm20,304l-18,47H454V635H127Z" />
      <glyph unicode="6" glyph-name="gid136" horiz-adv-x="567" d="M283-10q-65,0-117.5,30.5T82,103T51,219q0,84 58,161L339,682h62L182,400l-18-2q16,15 35.5,26T243,441t50,6q61,0 111.5-30.5t81-81T516,221q0-63-31.5-116T400,21T283-10Zm0,47q50,0 90.5,25.5t65,67T463,221t-24.5,92t-65,66.5T283,404t-90.5-24T128,314.5T104,221q0-51 24-93t64.5-66.5T283,37Z" />
      <glyph unicode="7" glyph-name="gid137" horiz-adv-x="530" d="M169,0L438,656l50-8L224,0H169ZM40,635v47H488V648l-24-13H40Z" />
      <glyph unicode="8" glyph-name="gid138" horiz-adv-x="554" d="M277-10q-64,0-115,26T82.5,87T54,189q0,45 18,83.5T123,338t77,37l14-16q-40,11-69,34.5T101,450T86,521q0,50 24.5,88.5t68,60.5T277,692q56,0 99-22t67.5-60.5T468,521q0-38-15-71t-43.5-56.5T341,359l13,16q44-10 77-37t51.5-65.5T501,189q0-57-29-102T392.5,16T277-10Zm0,46q51,0 89.5,20T427,111.5T449,193q0,45-22,80t-60.5,55T277,348q-50,0-89-20t-61-55t-22-80q0-46 22-81.5T188,56t89-20Zm0,352q62,0 101.5,36T418,519q0,57-39.5,93T277,648T176,612t-39-93q0-59 39-95t101-36Z" />
      <glyph unicode="9" glyph-name="gid139" horiz-adv-x="567" d="M166,0L385,282l18,2q-16-15-36-26t-43-17t-51-6q-60,0-110.5,30.5t-81,82T51,461q0,64 31.5,116.5T167,661t117,31q65,0 117.5-30.5t83-82.5T515,463q0-84-58-161L228,0H166ZM283,278q50,0 91,24.5t65,66T463,461q0,52-24,93.5t-65,66T283,645q-49,0-90-25t-65-66.5T104,461q0-50 24-91.5T193,303t90-25Z" />
      <glyph unicode=":" glyph-name="gid162" horiz-adv-x="270" d="M134-10q-20,0-33.5,15T87,39q0,21 13.5,35T134,88q21,0 35-14t14-35q0-19-14-34T134-10Zm0,317q-20,0-33.5,15T87,356q0,21 13.5,35T134,405q21,0 35-14t14-35q0-19-14-34t-35-15Z" />
      <glyph unicode=";" glyph-name="gid163" horiz-adv-x="269" d="M87-96L138,7l20,4q-3-8-9.5-13.5T132-8Q115-8 101.5,5T88,38t14.5,35T138,88q19,0 34-14.5T187,38q0-9-2.5-20.5T172-12L120-114L87-96Zm48,403q-21,0-34,15T88,356q0,21 13,35t34,14t35-14t14-35q0-19-14-34t-35-15Z" />
      <glyph unicode="&lt;" glyph-name="gid220" horiz-adv-x="531" d="M462,138L70,318v35L462,533V483L107,324v22L462,187V138Z" />
      <glyph unicode="=" glyph-name="gid218" horiz-adv-x="531" d="M70,426v44H462V426H70Zm0-230v44H462V196H70Z" />
      <glyph unicode="&gt;" glyph-name="gid219" horiz-adv-x="531" d="M70,483v50L462,353V318L70,138v49L425,346V324L70,483Z" />
      <glyph unicode="?" glyph-name="gid167" horiz-adv-x="504" d="M229,197l-2,184l25,1q40,1 70.5,21t48,52.5T388,526t-17.5,69T322,644t-74,18q-57,0-95.5-25.5T91,571L54,605q27,47 77,77t118,30q58,0 101-24t67-65.5T441,528q0-50-23.5-92.5t-65-69T257,336l19,23l-4-162H229ZM249-10q-21,0-34.5,14.5T201,39t13.5,34.5T249,88t34.5-14.5T297,39T283.5,4.5T249-10Z" />
      <glyph unicode="@" glyph-name="gid197" horiz-adv-x="777" d="M391-83q-66,0-123.5,24T167,8.5t-67.5,102T75,237t25,126.5T169,466t102.5,68.5T397,559q90,0 158.5-41t108-113T703,240q0-43-8.5-75.5T667,103l-43,7q13,20 20,37.5T654.5,187t3.5,56q0,83-33,144.5t-91.5,95T398,516q-78,0-140.5-35t-99-98.5T122,236q0-82 35.5-144.5T254-6T389-41q60,0 105.5,16T574,23L604-8q-43-37-96.5-56T391-83ZM375,93q-39,0-70.5,19.5t-50,52T236,237q0,41 18.5,73.5t50,52T375,382q50,0 82.5-26.5T490,288V186q0-39-32-66T375,93Zm1,39q45,0 72.5,29.5T476,238q0,48-27,77t-72,29q-41,0-70-29.5T278,238t28.5-76.5T376,132Zm111-29v38H667V103H487Zm-12,0v70l9,69l-9,65v69h41V103H475Z" />
      <glyph unicode="A" glyph-name="gid1" horiz-adv-x="684" d="M44,0L322,682h42L641,0H583L332,628h21L100,0H44ZM165,201v47H520V201H165Z" />
      <glyph unicode="B" glyph-name="gid10" horiz-adv-x="626" d="M125,0V47H352q74,0 118.5,40.5T515,192q0,42-19.5,74.5t-54,51T361,336H125v45H353q60,0 95.5,34T484,508q0,60-39,93.5T341,635H125v47H341q62,0 105.5-21.5t67-59.5T537,512q0-58-30.5-100T419,351l6,18q67-19 105.5-66.5T569,189q0-55-27-98T465.5,24T347,0H125ZM93,0V682h53V0H93Z" />
      <glyph unicode="C" glyph-name="gid11" horiz-adv-x="698" d="M402-10q-73,0-135.5,27t-109,75t-72,112T60,342T85,479.5t71.5,111t108,74.5T399,692q76,0 138.5-28T647,587l-37-37q-38,43-92,67T399,641q-61,0-113-22.5t-90.5-63t-59.5-95T115,342t21.5-119T196,127t90.5-63.5T400,41q67,0 122,24.5T615,133l37-36Q606,47 542.5,18.5T402-10Z" />
      <glyph unicode="D" glyph-name="gid13" horiz-adv-x="739" d="M121,0V49H333q86,0 151.5,37.5T587,190t37,152q0,85-37,151T484,596T333,633H124v49H334q75,0 138-25.5t109.5-71t72-108T679,341q0-73-25.5-135.5T582,97T473,25.5T336,0H121ZM93,0V682h53V0H93Z" />
      <glyph unicode="E" glyph-name="gid15" horiz-adv-x="589" d="M93,0V682h53V0H93Zm34,0V48H537V0H127Zm0,327v46H506V327H127Zm0,307v48H532V634H127Z" />
      <glyph unicode="F" glyph-name="gid20" horiz-adv-x="567" d="M93,0V682h53V0H93Zm34,316v48H501V316H127Zm0,318v48H518V634H127Z" />
      <glyph unicode="G" glyph-name="gid21" horiz-adv-x="774" d="M403-9Q329-9 266,17.5T157,91T85.5,202T60,341T86,480t72.5,112T268,666.5T405,693q83,0 152-33t112-95l-37-37q-38,55-96.5,84.5T405,642q-84,0-150-39T152,496T115,341t37-155T253,80T401,42q80,0 139,33t92,96.5T665,323l27-20H391v48H720v-9q0-112-39.5-190.5T569.5,32T403-9Z" />
      <glyph unicode="H" glyph-name="gid22" horiz-adv-x="693" d="M93,0V682h53V0H93ZM547,0V682h53V0H547ZM127,327v48H566V327H127Z" />
      <glyph unicode="I" glyph-name="gid23" horiz-adv-x="239" d="M93,0V682h53V0H93Z" />
      <glyph unicode="J" glyph-name="gid28" horiz-adv-x="496" d="M213-10q-56,0-97.5,21.5T43,71l36,35q25-32 57.5-48.5T212,41q37,0 70,16.5T336,110t21,93V682h53V201q0-68-27.5-115T310,14.5T213-10Z" />
      <glyph unicode="K" glyph-name="gid29" horiz-adv-x="653" d="M536,0L134,355L527,682h74L189,341v31L611,0H536ZM93,0V682h53V0H93Z" />
      <glyph unicode="L" glyph-name="gid30" horiz-adv-x="556" d="M93,0V682h53V0H93Zm34,0V48H512V0H127Z" />
      <glyph unicode="M" glyph-name="gid31" horiz-adv-x="833" d="M93,0V682h38L431,190H402L702,682h38V0H687V591l13-3L436,155H398L134,588l12,3V0H93Z" />
      <glyph unicode="N" glyph-name="gid32" horiz-adv-x="696" d="M93,0V682h38l15-64V0H93ZM565,0L123,612l8,70L574,71L565,0Zm0,0L550,62V682h53V0H565Z" />
      <glyph unicode="O" glyph-name="gid34" horiz-adv-x="793" d="M398-10q-72,0-133.5,27T157,92.5T85.5,205T60,342q0,74 25,137.5T156,591t107,74.5T396,692t133.5-26.5t107-74.5T708,479t26-138q0-73-25.5-137T637,92T530.5,17T398-10Zm-2,51q82,0 145.5,39.5T642,188t37,154q0,64-21.5,118.5t-59.5,95t-89.5,63T396,641q-81,0-144.5-39t-100-106.5T115,342q0-64 21-119t59-96t89.5-63.5T396,41Z" />
      <glyph unicode="P" glyph-name="gid42" horiz-adv-x="609" d="M125,282v47H341q47,0 83,18.5t57,53T502,482t-21,81.5t-57,53T341,635H125v47H347q60,0 106.5-24.5t74-69.5T555,482T527.5,376.5t-74-69.5T347,282H125ZM93,0V682h53V0H93Z" />
      <glyph unicode="Q" glyph-name="gid44" horiz-adv-x="810" d="M398-10q-72,0-133.5,27T157,92.5T85.5,205T60,342q0,74 25,137.5T156,591t107,74.5T396,692t133.5-26.5T637,591t71.5-112T734,341q0-73-25.5-137t-71-112T531,17T398-10ZM754-50L410,294l34,34L788-17L754-50ZM396,41q82,0 145.5,39.5T642,188t37,154q0,64-21.5,118.5t-59.5,95t-89,63T396,641q-81,0-144.5-39t-100-106.5T115,342q0-64 21-119t59-96t89.5-63.5T396,41Z" />
      <glyph unicode="R" glyph-name="gid45" horiz-adv-x="635" d="M125,313v45H336q75,0 115,38t40,101q0,62-39.5,100T336,635H125v47H334q66,0 113-23.5t72-65T544,497t-25-96.5T447,336T334,313H125ZM93,0V682h53V0H93ZM525,0L261,325l53,14L594,0H525Z" />
      <glyph unicode="S" glyph-name="gid46" horiz-adv-x="553" d="M282-10q-80,0-138,30.5T44,105l37,36q39-53 88.5-77.5T284,39q70,0 114,33t44,92q0,45-19,73t-50.5,46t-69,32t-75,28.5t-68.5,36T109.5,435T90,521t25.5,90.5t70,59.5T288,692q66,0 118-25.5T493,595l-37-36q-33,41-73.5,62.5T287,643q-64,0-103.5-31.5T144,524q0-42 19-68t50.5-43.5t69-30.5T357,354t68.5-37.5T476,259t19-89q0-87-57.5-133.5T282-10Z" />
      <glyph unicode="T" glyph-name="gid47" horiz-adv-x="638" d="M293,0V663h52V0H293ZM43,634v48H595V634H43Z" />
      <glyph unicode="U" glyph-name="gid48" horiz-adv-x="669" d="M335-10q-72,0-128.5,32t-89,88.5T85,238V682h52V242q0-61 26-106.5t71-70T335,41q57,0 101,24.5t70,70T532,241V682h53V237q0-71-33-127T463,22T335-10Z" />
      <glyph unicode="V" glyph-name="gid53" horiz-adv-x="671" d="M313,0L44,682h57L346,55H324L571,682h56L356,0H313Z" />
      <glyph unicode="W" glyph-name="gid54" horiz-adv-x="978" d="M264,0L45,682H99L293,63H274L467,682h43L704,63H684L879,682h54L714,0H673L480,618h17L305,0H264Z" />
      <glyph unicode="X" glyph-name="gid55" horiz-adv-x="678" d="M572,0L332,329h-9L54,682h63L351,374h9L635,0H572ZM43,0L316,358l34-33L103,0H43ZM364,334l-32,34L565,682h60L364,334Z" />
      <glyph unicode="Y" glyph-name="gid56" horiz-adv-x="652" d="M315,286L42,682h62L338,341H315L551,682h60L336,286H315ZM300,0V329h53V0H300Z" />
      <glyph unicode="Z" glyph-name="gid58" horiz-adv-x="571" d="M48,34L460,649h62L110,34H48ZM48,0V34L92,48H515V0H48ZM65,634v48H522V649l-45-15H65Z" />
      <glyph unicode="[" glyph-name="gid183" horiz-adv-x="331" d="M90-96V702h44V-96H90Zm22,0v41H288V-96H112Zm0,758v40H288V662H112Z" />
      <glyph unicode="\" glyph-name="gid174" horiz-adv-x="369" d="M297-40L25,718H72L344-40H297Z" />
      <glyph unicode="]" glyph-name="gid184" horiz-adv-x="331" d="M197-96V702h45V-96H197ZM43-96v41H219V-96H43Zm0,758v40H219V662H43Z" />
      <glyph unicode="^" glyph-name="gid224" horiz-adv-x="456" d="M341,457L220,671h16L115,457H68L209,702h37L389,457H341Z" />
      <glyph unicode="_" glyph-name="gid178" horiz-adv-x="552" d="M60-103v44H492v-44H60Z" />
      <glyph unicode="`" glyph-name="gid239" horiz-adv-x="256" d="M194,538L40,675l42,41L216,560l-22-22Z" />
      <glyph unicode="a" glyph-name="gid59" horiz-adv-x="587" d="M281-10q-67,0-120.5,32T76,108.5T45,232q0,68 31,123t84,87.5T279,475q54,0 96.5-20.5t70-57.5T481,309V157q-9-51-36.5-88.5t-69-58T281-10Zm7,48q80,0 127.5,53.5T463,232q0,59-21.5,102.5t-61.5,68T287,427q-55,0-97.5-25t-67-69T98,233q0-57 24.5-101T190,63t98-25ZM461,0V125l11,114L461,352V465h51V0H461Z" />
      <glyph unicode="b" glyph-name="gid67" horiz-adv-x="587" d="M311-10q-52,0-95.5,21T143,69.5T105,157V309q9,51 38.5,88.5t73,57.5T311,475q66,0 118-32t82-87t30-124T511,108.5T429,22T311-10ZM75,0V702h51V352L114,239l12-114V0H75ZM302,38q55,0 97,25t66,69t24,101T465,334t-65.5,68.5T305,427q-54,0-94.5-24.5T147,334T124,232q0-57 22.5-100.5t63-68.5T302,38Z" />
      <glyph unicode="c" glyph-name="gid68" horiz-adv-x="493" d="M286-10q-68,0-122.5,32.5T77,110.5T45,234T77,356.5T163.5,443T286,475q51,0 96-19t77-54l-34-34q-26,28-61.5,43.5T286,427q-54,0-96.5-25.5T122,333T97,234t25-100t67.5-70T286,38q42,0 78.5,15.5T427,98l34-34Q428,29 382.5,9.5T286-10Z" />
      <glyph unicode="d" glyph-name="gid70" horiz-adv-x="587" d="M276-10q-66,0-118,32T76,108.5T46,232T76,356t82,87t118,32q51,0 94.5-20T444,397.5T482,309V157q-9-50-38-87.5T371.5,11T276-10Zm9,48q53,0 93,25t62.5,68.5T463,232q0,58-23,101.5T376.5,402T282,427q-53,0-94.5-25T122,333.5T98,233t24-101t66-69t97-25ZM512,0H461V125l12,114L461,352V702h51V0Z" />
      <glyph unicode="e" glyph-name="gid72" horiz-adv-x="540" d="M289-10q-69,0-124.5,32T77,109T45,233T76,356.5T161.5,443T283,475q64,0 112.5-28.5t76-78.5T499,253q0-6-1-15.5T495,214H81v44H466l-17-14q2,55-18,96.5T373,405t-91,23q-55,0-97-24.5T119.5,336T96,236q0-60 24.5-104.5t68.5-69T292,38q45,0 83.5,16.5T440,104l34-33q-32-38-80.5-59.5T289-10Z" />
      <glyph unicode="f" glyph-name="gid77" horiz-adv-x="390" d="M147,0V553q0,47 20,82.5T222.5,691T304,711q35,0 63-12t49-35l-33-34q-17,18-37,26.5T303,665q-50,0-78-31t-28-84V0H147ZM26,420v45H361V420H26Z" />
      <glyph unicode="g" glyph-name="gid78" horiz-adv-x="586" d="M267-207q-68,0-123,25.5T56-108L88-76q27-38 73-60.5T268-159q89,0 140.5,48T460,18V135l12,108L460,348V465h51V18q0-68-30.5-118T395-178.5T267-207ZM277,3Q211,3 158.5,33.5T76,117.5T46,239q0,67 30,120.5T158,444t118,31q54,0 97-20.5T444.5,397T481,309V168q-9-50-37.5-87.5T372.5,23T277,3Zm9,47q52,0 92.5,23.5t62.5,66T463,239q0,56-22.5,98T378,403t-94,24t-96-24t-66-66T98,240t24-98t66.5-67.5T286,50Z" />
      <glyph unicode="h" glyph-name="gid79" horiz-adv-x="541" d="M425,0V276q0,68-40,110T279,428q-45,0-79.5-19.5t-54-53.5T126,276l-26,15q0,53 25,94.5T193,451t98,24t96.5-24.5T452,382t23-100V0H425ZM75,0V702h51V0H75Z" />
      <glyph unicode="i" glyph-name="gid80" horiz-adv-x="203" d="M76,0V465h50V0H76Zm25,573q-17,0-28.5,12.5T61,615t11.5,28.5T101,655t29-11.5T142,615t-12-29.5T101,573Z" />
      <glyph unicode="j" glyph-name="gid86" horiz-adv-x="205" d="M-9-207q-36,0-65,12.5T-125-158l34,33q17-18 37-26.5t43-8.5q38,0 64,22T79-68V465h51V-67q0-46-19.5-77t-51-47T-9-207ZM104,573q-17,0-28,12.5T65,615t11,28.5T104,655q18,0 29.5-11.5T145,615t-11.5-29.5T104,573Z" />
      <glyph unicode="k" glyph-name="gid88" horiz-adv-x="471" d="M378,0L119,239L373,465h65L168,226l1,28L447,0H378ZM75,0V702h51V0H75Z" />
      <glyph unicode="l" glyph-name="gid89" horiz-adv-x="201" d="M75,0V702h51V0H75Z" />
      <glyph unicode="m" glyph-name="gid90" horiz-adv-x="843" d="M75,0V465h51V0H75ZM401,0V289q0,63-37.5,101T268,428q-39,0-71-17t-51.5-48T126,291l-26,6q0,54 23.5,94t64,62T278,475t89-22t62-62t23-94V0H401ZM727,0V289q0,63-37.5,101T594,428q-39,0-71.5-17T471,363t-19-72l-31,6q1,55 25.5,94.5T512,453t91,22t89-22t62.5-62.5T778,296V0H727Z" />
      <glyph unicode="n" glyph-name="gid91" horiz-adv-x="541" d="M425,0V276q0,68-40,110T279,428q-45,0-79.5-19.5t-54-53.5T126,276l-26,15q0,53 25,94.5T193,451t98,24t96.5-25.5T452,380t23-98V0H425ZM75,0V465h51V0H75Z" />
      <glyph unicode="o" glyph-name="gid93" horiz-adv-x="571" d="M286-10q-68,0-122.5,32.5T77,110.5T45,234T77,356.5T163.5,443T286,475q67,0 121.5-32T494,356.5T526,234q0-69-32-124T407.5,22.5T286-10Zm0,48q53,0 95.5,26t67,70.5T473,235q0,55-24.5,98t-67,68.5T286,427q-54,0-96.5-25.5T122,333T97,234t25-100t67.5-70T286,38Z" />
      <glyph unicode="p" glyph-name="gid101" horiz-adv-x="587" d="M311-10q-52,0-95.5,21T143,69.5T105,157V309q9,51 38.5,88.5t73,57.5T311,475q66,0 118-32t82-87t30-124T511,108.5T429,22T311-10ZM75-197V465h51V349L114,236l12-114V-197H75ZM302,38q55,0 97,25t66,69t24,101T465,334t-65.5,68.5T305,427q-54,0-94.5-24.5T147,334T124,232q0-57 22.5-100.5t63-68.5T302,38Z" />
      <glyph unicode="q" glyph-name="gid103" horiz-adv-x="588" d="M282-10q-68,0-121,32T77,108.5T46,232q0,68 31,123t84,87.5T280,475q54,0 96.5-20.5t70-57.5T482,309V157q-9-51-36.5-88.5T376,10.5T282-10Zm7,48q80,0 127.5,53.5T464,232q0,59-22,102.5t-61.5,68T288,427q-55,0-97.5-25T123,333T98,233q0-57 25-101t68-69t98-25ZM462-197V122l11,114L462,349V465h50V-197H462Z" />
      <glyph unicode="r" glyph-name="gid104" horiz-adv-x="408" d="M75,0V465h51V0H75Zm51,278l-25,9q0,89 45,138.5T264,475q34,0 63.5-12T382,424l-34-36q-19,21-41,30t-52,9q-57,0-93-38.5T126,278Z" />
      <glyph unicode="s" glyph-name="gid105" horiz-adv-x="420" d="M214-10q-38,0-71.5,10.5T81.5,30T33,74l34,34q28-37 65.5-54.5T215,36q52,0 82,21t30,59q0,34-19,53.5T258.5,200t-64,21t-64,24T81,284T62,351q0,37 19,65t53.5,43.5T216,475q52,0 93.5-18T376,404l-33-34q-20,28-54,43.5T213,429q-50,0-76-21t-26-54q0-31 19-49t49.5-28t64-19.5t64-24.5T357,192t19-71q0-60-44-95.5T214-10Z" />
      <glyph unicode="t" glyph-name="gid107" horiz-adv-x="347" d="M148,0V662h51V0H148ZM28,420v45H319V420H28Z" />
      <glyph unicode="u" glyph-name="gid108" horiz-adv-x="513" d="M257-10q-56,0-100,26T88.5,88T64,194V465h51V196q0-47 17.5-82.5T182,58t75-20q64,0 102.5,43.5T398,196V465h51V194q0-60-24.5-106t-68-72T257-10Z" />
      <glyph unicode="v" glyph-name="gid113" horiz-adv-x="513" d="M241,0L24,465H80L272,43H241L434,465h55L271,0H241Z" />
      <glyph unicode="w" glyph-name="gid114" horiz-adv-x="742" d="M203,0L27,465H80L229,54H207L356,465h30L535,54H513L662,465h53L540,0H509L358,412h27L233,0H203Z" />
      <glyph unicode="x" glyph-name="gid115" horiz-adv-x="493" d="M404,0L237,219l-12,10L35,465H98L256,265l12-8L467,0H404ZM26,0L226,253l27-39L88,0H26ZM269,229l-26,37L398,465h61L269,229Z" />
      <glyph unicode="y" glyph-name="gid116" horiz-adv-x="506" d="M234-1L27,465H83L262,52H236L423,465h56L260-1H234ZM113-197L233,49L260-1L168-197H113Z" />
      <glyph unicode="z" glyph-name="gid119" horiz-adv-x="438" d="M33,28L343,437h60L93,28H33ZM33,0V28L73,45H398V0H33ZM49,420v45H403V437l-48-17H49Z" />
      <glyph unicode="{" glyph-name="gid181" horiz-adv-x="316" d="M234-96q-69,0-106,44.5T102,85l13,112q6,46-7,67T67,285H40v39H67q28,0 41,21.5t7,66.5L102,521q-11,93 26,137t106,44h39V662H242q-51,0-77.5-31T147,525l12-109q4-33-2-58t-23.5-41T85,292v22q31-6 48.5-22T157,251t2-58L147,81Q139,7 165-24t77-31h31V-96H234Z" />
      <glyph unicode="|" glyph-name="gid205" horiz-adv-x="271" d="M112-130V752h47V-130H112Z" />
      <glyph unicode="}" glyph-name="gid182" horiz-adv-x="316" d="M83-96H43v41H75q51,0 77,31T170,81L158,193q-3,33 2.5,58t23,41T232,314V292q-31,9-48.5,25t-23,41T158,416l12,109q9,75-17.5,106T75,662H43v40H83q68,0 105.5-44T214,521L201,412q-6-45 7.5-66.5T249,324h27V285H249q-27,0-40.5-21T201,197L214,85Q226-7 188.5-51.5T83-96Z" />
      <glyph unicode="~" glyph-name="gid222" horiz-adv-x="531" d="M357,289q-25,0-45.5,7T271,311.5t-41.5,15T182,333q-32,0-52.5-10T94,294L64,322q20,27 47.5,42.5T181,380q28,0 50.5-6.5T274,358t39.5-15.5T356,336q27,0 47.5,10.5T439,375l29-28q-19-26-46.5-42T357,289Z" />
      <glyph unicode="&#xa0;" glyph-name="gid159" horiz-adv-x="223" />
      <glyph unicode="&#xa1;" glyph-name="gid166" horiz-adv-x="262" d="M102-197l9,465h40l9-465H102Zm28,574q-21,0-35,14.5T81,426q0,21 14,35t35,14q20,0 34-14t14-35q0-20-14-34.5T130,377Z" />
      <glyph unicode="&#xa2;" glyph-name="gid207" horiz-adv-x="508" d="M293,99q-68,0-122.5,32T84,218.5T52,343q0,68 32,122.5T170.5,552T293,584q51,0 96-19.5T465,510l-33-34q-26,28-62,43.5T293,535q-54,0-97-25t-67.5-68.5T104,343q0-57 24.5-101T196,172.5T293,147q42,0 78.5,15.5T434,207l34-34q-33-36-78.5-55T293,99ZM261,10V672h39V10H261Z" />
      <glyph unicode="&#xa3;" glyph-name="gid211" horiz-adv-x="614" d="M178,8V490q0,64 26,109.5t71,69T374,692q67,0 109-25.5T548,608l-36-36q-24,31-56.5,51T372,643q-39,0-71-17t-51.5-50T230,495V8H178ZM74,0V48H534V0H74Zm0,305v44H449V305H74Z" />
      <glyph unicode="&#xa4;" glyph-name="gid208" horiz-adv-x="493" d="M247,146q-55,0-99.5,26.5t-70,71T52,343q0,54 25.5,98t70,69.5T247,536q54,0 98-25t70-69.5T441,343q0-56-26-100.5T345,172t-98-26ZM60,126L31,154l78,78l28-28L60,126Zm187,66q41,0 73.5,20T372,266t19,77q0,42-19,75.5t-51.5,53T247,491q-42,0-74.5-19.5t-51-53T103,343q0-44 18.5-77.5T173,212t74-20Zm188-66l-79,78l28,28l78-78l-27-28ZM109,452L31,529l29,28l77-78l-28-27Zm275,0l-28,27l79,78l27-28l-78-77Z" />
      <glyph unicode="&#xa5;" glyph-name="gid212" horiz-adv-x="650" d="M313,284L76,682h62L337,335H314L514,682h59L335,284H313ZM299,0V324h52V0H299ZM240,451l19-44H100v44H240ZM100,233v44H550V233H100ZM387,407l25,44H550V407H387Z" />
      <glyph unicode="&#xa6;" glyph-name="gid206" horiz-adv-x="271" d="M112,388V752h47V388H112Zm0-518V234h47V-130H112Z" />
      <glyph unicode="&#xa7;" glyph-name="gid200" horiz-adv-x="522" d="M269,140l1,39q58,0 92.5,26T397,271q0,41-21.5,63T321,369t-71,24t-71.5,27.5t-54.5,46T103,547q0,42 20.5,75t58,51.5T272,692q57,0 102.5-22.5T446,608l-35-35q-23,34-61.5,52T268,643q-56,0-85.5-26.5T153,550q0-39 21-60.5T228.5,455t71-24t71-28T425,356.5T446,277q0-42-22.5-72.5t-62-47.5T269,140ZM250-121q-56,0-102,22.5T76-36L111-1q23-35 61.5-53T254-72q56,0 85.5,27T369,21T348,82t-54.5,35t-71,23.5t-71,27.5T97,214.5T76,295q0,42 22.5,72T161,414t92,17l-1-39q-58,0-92.5-25.5T125,300q0-40 21.5-62.5T201,202t71-24t71.5-27.5t54.5-46T419,25q0-43-20.5-75.5t-58-51.5T250-121Z" />
      <glyph unicode="&#xa8;" glyph-name="gid238" horiz-adv-x="381" d="M100,548q-17,0-28.5,12.5T60,590t11.5,28.5T100,630t29-11.5T141,590t-12-29.5T100,548Zm180,0q-17,0-28.5,12.5T240,590t11.5,28.5T280,630t29-11.5T321,590t-12-29.5T280,548Z" />
      <glyph unicode="&#xa9;" glyph-name="gid201" horiz-adv-x="850" d="M426-10q-76,0-140,27T175.5,92t-72,112T78,342q0,75 25,138.5t71.5,111t110,74T425,692q76,0 140-27t110.5-74t72-111T773,341q0-74-25.5-138t-72-112T566,16.5T426-10Zm4,157q-54,0-98.5,26t-70,70.5T236,343q0,54 25.5,98t70,69.5T430,536q41,0 76.5-15T570,477l-31-33q-20,22-47.5,34T430,490q-40,0-72.5-19T306,419t-19-76q0-44 19-78t51.5-53T430,193q33,0 61.5,11.5T541,239l30-33q-26-28-62.5-43.5T430,147ZM425,24q92,0 162,42T696.5,180T736,342q0,89-39.5,160.5T587,616T425,658T263,616.5t-109-113T115,342t39.5-162T264,66T425,24Z" />
      <glyph unicode="&#xaa;" glyph-name="gid128" horiz-adv-x="353" d="M166,395q-40,0-72,19T43.5,466T25,541t18.5,75.5T94,669t72,19q46,0 78.5-26T284,591V492q-7-44-39-70.5T166,395Zm7,38q44,0 71,29.5T271,542q0,48-27.5,78T172,650q-46,0-75.5-31T67,542q0-47 30-78t76-31Zm96-32v75l8,69l-8,68v69h41V401H269Z" />
      <glyph unicode="&#xab;" glyph-name="gid191" horiz-adv-x="423" d="M167,83L48,236L167,390h54L100,236L221,83H167Zm155,0L203,236L322,390h54L254,236L376,83H322Z" />
      <glyph unicode="&#xac;" glyph-name="gid223" horiz-adv-x="531" d="M70,361v44H462V361H70Zm345,34h47V182H415V395Z" />
      <glyph unicode="&#xae;" glyph-name="gid202" horiz-adv-x="588" d="M295,267q-62,0-110,28.5t-74.5,77T84,481q0,59 26.5,107T184,664t109,28q63,0 110.5-28.5T478,587t27-107q0-60-27-108t-74-76.5T295,267ZM224,371V596h28V371H224Zm137,0L274,478h32l88-107H361Zm-68-81q56,0 98,25.5T456.5,384T480,481q0,53-23.5,95.5T391,644t-98,25q-55,0-96.5-25t-65-67.5T108,481q0-54 23.5-97T197,315.5T293,290ZM234,474v26h70q20,0 30,9.5T344,534t-9.5,25.5T304,570H234v26h69q33,0 51.5-17T373,535t-18.5-44T303,474H234Z" />
      <glyph unicode="&#xaf;" glyph-name="gid244" horiz-adv-x="407" d="M40,610H367V568H40v42Z" />
      <glyph unicode="&#xb0;" glyph-name="gid204" horiz-adv-x="398" d="M199,392q-42,0-76,19.5T69.5,465T50,541q0,44 19.5,77.5T123,672t76,20q43,0 76.5-20t53-53.5T348,541q0-42-19.5-76t-53-53.5T199,392Zm1,41q45,0 74,31.5T303,543t-29,77.5T200,651q-46,0-75.5-30.5T95,543t29.5-78.5T200,433Z" />
      <glyph unicode="&#xb1;" glyph-name="gid221" horiz-adv-x="531" d="M70,366v44H462V366H70ZM243,542h46V234H243V542ZM70,124v45H462V124H70Z" />
      <glyph unicode="&#xb2;" glyph-name="gid155" horiz-adv-x="329" d="M44,364L174,497q31,32 41.5,50.5T226,586q0,29-17.5,45.5T161,648q-26,0-46.5-13T77,596L47,624q21,32 50,47.5T163,687q49,0 78.5-27T271,587q0-30-13-54.5T208,472L102,364H44Zm0-27v27l37,12H280V337H44Z" />
      <glyph unicode="&#xb3;" glyph-name="gid156" horiz-adv-x="329" d="M151,332q-35,0-63,13.5T41,382l30,30q12-18 33-29t47-11q34,0 56,19.5T229,444t-22,53t-59,20q-8,0-17-1.5T112,512l18,24q13,6 23,8t19,2q44,0 73-28.5T274,443q0-49-34.5-80T151,332ZM112,512v27L219,658l50-2L160,536l-48-24ZM59,644v38H269V656l-36-12H59Z" />
      <glyph unicode="&#xb4;" glyph-name="gid240" horiz-adv-x="256" d="M62,540L40,562L175,719l41-42L62,540Z" />
      <glyph unicode="&#xb5;" glyph-name="gid225" horiz-adv-x="586" d="M112-182V465h51V-182H112ZM309-10q-81,0-128,51T134,174l29,15q0-69 37.5-110T300,38T404,77.5T446,190V465h51V186q0-58-24.5-102.5t-67-69T309-10Z" />
      <glyph unicode="&#xb6;" glyph-name="gid199" horiz-adv-x="681" d="M369,282H280q-60,0-107,24.5T98.5,376T71,482T98.5,587.5T173,657t107,25H619V635H285q-46,0-82.5-18.5t-57.5-53T124,482t21-81.5t57.5-53T285,329h84V282Zm21-382H343V682h47V-100Zm137,0H480V682h47V-100Z" />
      <glyph unicode="&#xb7;" glyph-name="gid169" horiz-adv-x="97" d="M48,309q-20,0-34,15T0,358q0,21 14,35t34,14q21,0 35-14t14-35q0-19-14-34T48,309Z" />
      <glyph unicode="&#xb8;" glyph-name="gid245" horiz-adv-x="264" d="M132-207q-31,0-60,10T19-168l31,31q14-14 34.5-22t45.5-8q36,0 55,12t19,34q0,21-20.5,33.5T124-75H96l27,85h46L147-60L127-40q59,1 92.5-21.5T253-123t-32-61.5T132-207Z" />
      <glyph unicode="&#xb9;" glyph-name="gid154" horiz-adv-x="247" d="M113,337V682h44V337H113ZM40,644v38H152V644H40Z" />
      <glyph unicode="&#xba;" glyph-name="gid129" horiz-adv-x="343" d="M172,394q-41,0-75,20T44,467.5T25,542q0,42 19.5,74.5t53,52T172,688t74-19t53-52t20-75q0-41-20-75t-53-53.5T172,394Zm0,39q45,0 74.5,31.5T276,543q0,45-30,75.5T172,649q-45,0-75-30.5T67,542q0-47 30-78t75-31Z" />
      <glyph unicode="&#xbb;" glyph-name="gid192" horiz-adv-x="423" d="M202,83L323,236L202,390h54L375,236L256,83H202ZM47,83L169,236L47,390h54L220,236L101,83H47Z" />
      <glyph unicode="&#xbc;" glyph-name="gid152" horiz-adv-x="649" d="M263,297l23-18L96-11L49,29L263,297Zm84,89l-23,19L514,695l47-41L347,386ZM143,337V682h44V337H143ZM71,644v38H182V644H71ZM333,99L457,332h50L380,99H333Zm0-27V99l15,13H599V72H333ZM508-13V212h44V-13H508Z" />
      <glyph unicode="&#xbd;" glyph-name="gid151" horiz-adv-x="643" d="M263,297l23-18L96-11L49,29L263,297Zm84,89l-23,19L514,695l47-41L347,386ZM143,337V682h44V337H143ZM71,644v38H182V644H71ZM348,14L478,147q32,32 42.5,50.5T531,236q0,29-18,45.5T465,298q-26,0-46-13t-37-39l-31,28q21,32 50,47.5T468,337q49,0 78-27t29-73q0-30-13-54.5T512,122L406,14H348Zm0-27V14l37,12H584V-13H348Z" />
      <glyph unicode="&#xbe;" glyph-name="gid153" horiz-adv-x="641" d="M284,299l23-18L122-11L75,29L284,299Zm97,86l-23,17L542,695l48-41L381,385ZM164,332q-35,0-63,13.5T55,382l29,30q12-18 33.5-29T164,372q34,0 56,19.5T242,444t-22,53t-59,20q-8,0-16.5-1.5T126,512l18,24q12,6 22.5,8t19.5,2q43,0 72.5-28.5T288,443q0-49-34.5-80T164,332ZM126,512v27L233,658l49-2L174,536l-48-24ZM72,644v38H282V656l-36-12H72ZM316,99L441,332h49L363,99H316Zm0-27V99l15,13H582V72H316ZM491-13V212h44V-13H491Z" />
      <glyph unicode="&#xbf;" glyph-name="gid168" horiz-adv-x="500" d="M255-207q-56,0-99,24.5t-67,67T65-20q0,54 23,95t65,65.5T249,170l-20-24l5,122h43l2-144H254q-60-3-98-41T118-18q0-38 17-69.5T183.5-138T257-157q57,0 95,26t61,65l37-34q-27-47-77-77T255-207Zm2,584q-21,0-35,14.5T208,427q0,20 14,34t35,14q20,0 34-14t14-34q0-21-14-35.5T257,377Z" />
      <glyph unicode="&#xc0;" glyph-name="gid6" horiz-adv-x="684" d="M44,0L322,682h42L641,0H583L332,628h21L100,0H44ZM165,201v47H520V201H165ZM381,755L227,892l42,41L403,777l-22-22Z" />
      <glyph unicode="&#xc1;" glyph-name="gid2" horiz-adv-x="684" d="M44,0L322,682h42L641,0H583L332,628h21L100,0H44ZM165,201v47H520V201H165ZM276,757l-22,22L389,936l41-42L276,757Z" />
      <glyph unicode="&#xc2;" glyph-name="gid4" horiz-adv-x="684" d="M44,0L322,682h42L641,0H583L332,628h21L100,0H44ZM165,201v47H520V201H165Zm41,556l-22,22L321,933h43L501,779l-22-22L326,893h33L206,757Z" />
      <glyph unicode="&#xc3;" glyph-name="gid8" horiz-adv-x="684" d="M44,0L322,682h42L641,0H583L332,628h21L100,0H44ZM165,201v47H520V201H165ZM416,764q-31,0-53,11t-42.5,22T274,808q-27,0-42-10t-28-28l-29,26q18,25 40.5,40.5T273,852q33,0 56-11t43-22t43-11q24,0 38.5,10T481,846l29-27q-18-24-40.5-39.5T416,764Z" />
      <glyph unicode="&#xc4;" glyph-name="gid5" horiz-adv-x="684" d="M44,0L322,682h42L641,0H583L332,628h21L100,0H44ZM165,201v47H520V201H165Zm87,564q-17,0-28.5,12.5T212,807t11.5,28.5T252,847t29-11.5T293,807t-12-29.5T252,765Zm180,0q-17,0-28.5,12.5T392,807t11.5,28.5T432,847t29-11.5T473,807t-12-29.5T432,765Z" />
      <glyph unicode="&#xc5;" glyph-name="gid7" horiz-adv-x="684" d="M44,0L322,682h42L641,0H583L332,628h21L100,0H44ZM165,201v47H520V201H165ZM343,662q-32,0-56.5,14.5T248,715t-14,54q0,31 14,55.5T286.5,863T343,877q31,0 54.5-14T435,824.5T449,770q0-31-14-55.5T397.5,676T343,662Zm1,40q26,0 45,19.5T408,770t-19,48t-45,19q-31,0-49.5-19.5T276,770q0-29 18.5-48.5T344,702Z" />
      <glyph unicode="&#xc6;" glyph-name="gid9" horiz-adv-x="956" d="M44,0L322,682H527V634H355L100,0H44ZM177,264v46H519V264H177ZM530,0V48H905V0H530ZM497,0V682h53V0H497Zm29,327v46H874V327H526Zm4,307v48H899V634H530Z" />
      <glyph unicode="&#xc7;" glyph-name="gid12" horiz-adv-x="698" d="M402-10q-73,0-135.5,27t-109,75t-72,112T60,342T85,479.5t71.5,111t108,74.5T399,692q76,0 138.5-28T647,587l-37-37q-38,43-92,67T399,641q-61,0-113-22.5t-90.5-63t-59.5-95T115,342t21.5-119T196,127t90.5-63.5T400,41q67,0 122,24.5T615,133l37-36Q606,47 542.5,18.5T402-10ZM373-207q-31,0-60,10t-53,29l31,31q14-14 34.5-22t45.5-8q36,0 55,12t19,34q0,21-20.5,33.5T365-75H337l27,85h46L388-60L368-40q59,1 92.5-21.5T494-123t-32-61.5T373-207Z" />
      <glyph unicode="&#xc8;" glyph-name="gid19" horiz-adv-x="589" d="M93,0V682h53V0H93Zm34,0V48H537V0H127Zm0,327v46H506V327H127Zm0,307v48H532V634H127ZM356,755L202,892l42,41L378,777l-22-22Z" />
      <glyph unicode="&#xc9;" glyph-name="gid16" horiz-adv-x="589" d="M93,0V682h53V0H93Zm34,0V48H537V0H127Zm0,327v46H506V327H127Zm0,307v48H532V634H127ZM250,757l-22,22L363,936l41-42L250,757Z" />
      <glyph unicode="&#xca;" glyph-name="gid17" horiz-adv-x="589" d="M93,0V682h53V0H93Zm34,0V48H537V0H127Zm0,327v46H506V327H127Zm0,307v48H532V634H127Zm53,123l-22,22L295,933h43L475,779l-22-22L300,893h33L180,757Z" />
      <glyph unicode="&#xcb;" glyph-name="gid18" horiz-adv-x="589" d="M93,0V682h53V0H93Zm34,0V48H537V0H127Zm0,327v46H506V327H127Zm0,307v48H532V634H127Zm99,131q-17,0-28.5,12.5T186,807t11.5,28.5T226,847t29-11.5T267,807t-12-29.5T226,765Zm180,0q-17,0-28.5,12.5T366,807t11.5,28.5T406,847t29-11.5T447,807t-12-29.5T406,765Z" />
      <glyph unicode="&#xcc;" glyph-name="gid27" horiz-adv-x="239" d="M93,0V682h53V0H93Zm66,755L5,892l42,41L181,777l-22-22Z" />
      <glyph unicode="&#xcd;" glyph-name="gid24" horiz-adv-x="239" d="M93,0V682h53V0H93ZM54,757L32,779L167,936l41-42L54,757Z" />
      <glyph unicode="&#xce;" glyph-name="gid25" horiz-adv-x="239" d="M93,0V682h53V0H93ZM-17,757l-22,22L98,933h43L278,779l-22-22L103,893h33L-17,757Z" />
      <glyph unicode="&#xcf;" glyph-name="gid26" horiz-adv-x="239" d="M93,0V682h53V0H93ZM30,765q-17,0-28.5,12.5T-10,807T1.5,835.5T30,847t29-11.5T71,807T59,777.5T30,765Zm180,0q-17,0-28.5,12.5T170,807t11.5,28.5T210,847t29-11.5T251,807t-12-29.5T210,765Z" />
      <glyph unicode="&#xd0;" glyph-name="gid14" horiz-adv-x="744" d="M17,372H369V327H17v45ZM126,0V49H338q86,0 151.5,37.5T592,190t37,152q0,85-37,151T489,596T338,633H129v49H339q75,0 138-25.5t109.5-71t72-108T684,341q0-73-25.5-135.5T587,97T478,25.5T341,0H126ZM98,0V682h53V0H98Z" />
      <glyph unicode="&#xd1;" glyph-name="gid33" horiz-adv-x="696" d="M93,0V682h38l15-64V0H93ZM565,0L123,612l8,70L574,71L565,0Zm0,0L550,62V682h53V0H565ZM422,764q-31,0-53,11t-42.5,22T280,808q-27,0-42-10t-28-28l-29,26q18,25 40.5,40.5T279,852q33,0 56-11t43-22t43-11q24,0 38.5,10T487,846l29-27q-18-24-40.5-39.5T422,764Z" />
      <glyph unicode="&#xd2;" glyph-name="gid38" horiz-adv-x="793" d="M398-10q-72,0-133.5,27T157,92.5T85.5,205T60,342q0,74 25,137.5T156,591t107,74.5T396,692t133.5-26.5t107-74.5T708,479t26-138q0-73-25.5-137T637,92T530.5,17T398-10Zm-2,51q82,0 145.5,39.5T642,188t37,154q0,64-21.5,118.5t-59.5,95t-89.5,63T396,641q-81,0-144.5-39t-100-106.5T115,342q0-64 21-119t59-96t89.5-63.5T396,41Zm40,714L282,892l42,41L458,777l-22-22Z" />
      <glyph unicode="&#xd3;" glyph-name="gid35" horiz-adv-x="793" d="M398-10q-72,0-133.5,27T157,92.5T85.5,205T60,342q0,74 25,137.5T156,591t107,74.5T396,692t133.5-26.5t107-74.5T708,479t26-138q0-73-25.5-137T637,92T530.5,17T398-10Zm-2,51q82,0 145.5,39.5T642,188t37,154q0,64-21.5,118.5t-59.5,95t-89.5,63T396,641q-81,0-144.5-39t-100-106.5T115,342q0-64 21-119t59-96t89.5-63.5T396,41ZM331,757l-22,22L444,936l41-42L331,757Z" />
      <glyph unicode="&#xd4;" glyph-name="gid36" horiz-adv-x="793" d="M398-10q-72,0-133.5,27T157,92.5T85.5,205T60,342q0,74 25,137.5T156,591t107,74.5T396,692t133.5-26.5t107-74.5T708,479t26-138q0-73-25.5-137T637,92T530.5,17T398-10Zm-2,51q82,0 145.5,39.5T642,188t37,154q0,64-21.5,118.5t-59.5,95t-89.5,63T396,641q-81,0-144.5-39t-100-106.5T115,342q0-64 21-119t59-96t89.5-63.5T396,41ZM261,757l-22,22L376,933h43L556,779l-22-22L381,893h33L261,757Z" />
      <glyph unicode="&#xd5;" glyph-name="gid40" horiz-adv-x="793" d="M398-10q-72,0-133.5,27T157,92.5T85.5,205T60,342q0,74 25,137.5T156,591t107,74.5T396,692t133.5-26.5t107-74.5T708,479t26-138q0-73-25.5-137T637,92T530.5,17T398-10Zm-2,51q82,0 145.5,39.5T642,188t37,154q0,64-21.5,118.5t-59.5,95t-89.5,63T396,641q-81,0-144.5-39t-100-106.5T115,342q0-64 21-119t59-96t89.5-63.5T396,41Zm75,723q-31,0-53,11t-42.5,22T329,808q-27,0-42-10t-28-28l-29,26q18,25 40.5,40.5T328,852q33,0 56-11t43-22t43-11q24,0 38.5,10T536,846l29-27q-18-24-40.5-39.5T471,764Z" />
      <glyph unicode="&#xd6;" glyph-name="gid37" horiz-adv-x="793" d="M398-10q-72,0-133.5,27T157,92.5T85.5,205T60,342q0,74 25,137.5T156,591t107,74.5T396,692t133.5-26.5t107-74.5T708,479t26-138q0-73-25.5-137T637,92T530.5,17T398-10Zm-2,51q82,0 145.5,39.5T642,188t37,154q0,64-21.5,118.5t-59.5,95t-89.5,63T396,641q-81,0-144.5-39t-100-106.5T115,342q0-64 21-119t59-96t89.5-63.5T396,41ZM307,765q-17,0-28.5,12.5T267,807t11.5,28.5T307,847t29-11.5T348,807t-12-29.5T307,765Zm180,0q-17,0-28.5,12.5T447,807t11.5,28.5T487,847t29-11.5T528,807t-12-29.5T487,765Z" />
      <glyph unicode="&#xd7;" glyph-name="gid216" horiz-adv-x="531" d="M111,145L78,178L421,521l33-33L111,145Zm302,7L85,481l33,33L446,185l-33-33Z" />
      <glyph unicode="&#xd8;" glyph-name="gid39" horiz-adv-x="793" d="M691,670l34-35L101,12L67,47L691,670ZM397-10q-72,0-133.5,27T156,92.5T84.5,205T59,342q0,74 25,137.5T155,591t107,74.5T395,692t133.5-26.5T636,591t71.5-112T733,341q0-73-25.5-137t-71-112T530,17T397-10Zm-2,51q82,0 145.5,39.5T641,188t37,154q0,64-21.5,118.5t-59.5,95t-89,63T395,641q-81,0-144.5-39t-100-106.5T114,342q0-64 21-119t59-96t89.5-63.5T395,41Z" />
      <glyph unicode="&#xd9;" glyph-name="gid52" horiz-adv-x="669" d="M335-10q-72,0-128.5,32t-89,88.5T85,238V682h52V242q0-61 26-106.5t71-70T335,41q57,0 101,24.5t70,70T532,241V682h53V237q0-71-33-127T463,22T335-10Zm39,765L220,892l42,41L396,777l-22-22Z" />
      <glyph unicode="&#xda;" glyph-name="gid49" horiz-adv-x="669" d="M335-10q-72,0-128.5,32t-89,88.5T85,238V682h52V242q0-61 26-106.5t71-70T335,41q57,0 101,24.5t70,70T532,241V682h53V237q0-71-33-127T463,22T335-10ZM268,757l-22,22L381,936l41-42L268,757Z" />
      <glyph unicode="&#xdb;" glyph-name="gid50" horiz-adv-x="669" d="M335-10q-72,0-128.5,32t-89,88.5T85,238V682h52V242q0-61 26-106.5t71-70T335,41q57,0 101,24.5t70,70T532,241V682h53V237q0-71-33-127T463,22T335-10ZM198,757l-22,22L313,933h43L493,779l-22-22L318,893h33L198,757Z" />
      <glyph unicode="&#xdc;" glyph-name="gid51" horiz-adv-x="669" d="M335-10q-72,0-128.5,32t-89,88.5T85,238V682h52V242q0-61 26-106.5t71-70T335,41q57,0 101,24.5t70,70T532,241V682h53V237q0-71-33-127T463,22T335-10ZM244,765q-17,0-28.5,12.5T204,807t11.5,28.5T244,847t29-11.5T285,807t-12-29.5T244,765Zm180,0q-17,0-28.5,12.5T384,807t11.5,28.5T424,847t29-11.5T465,807t-12-29.5T424,765Z" />
      <glyph unicode="&#xdd;" glyph-name="gid57" horiz-adv-x="652" d="M315,286L42,682h62L338,341H315L551,682h60L336,286H315ZM300,0V329h53V0H300ZM260,757l-22,22L373,936l41-42L260,757Z" />
      <glyph unicode="&#xde;" glyph-name="gid43" horiz-adv-x="609" d="M125,150v47H341q47,0 83,18.5T481,268t21,82q0,47-21,81.5t-57,53T341,503H125v47H347q60,0 106.5-25t74-69.5T555,350T527.5,244t-74-69.5T347,150H125ZM93,0V682h53V0H93Z" />
      <glyph unicode="&#xdf;" glyph-name="gid106" horiz-adv-x="563" d="M314-10q-42,0-79,14T171,45l32,37q20-21 49.5-32.5T315,38q48,0 82,20.5t51.5,56T466,193q0,45-20,80t-56.5,56.5T303,351H243v44h31q41,0 70.5,19.5T390,466t16,68t-16.5,66T342,648t-74,18q-63,0-102-38.5T127,527V0H75V527q0,54 25,95.5T168,688t100,24q59,0 101-23.5T434,625t23-89q0-62-36.5-107.5T321,370l2,18q59-2 103.5-27t69-68.5T520,193q0-43-14-80T465.5,48.5t-65-43T314-10Z" />
      <glyph unicode="&#xe0;" glyph-name="gid63" horiz-adv-x="587" d="M281-10q-67,0-120.5,32T76,108.5T45,232q0,68 31,123t84,87.5T279,475q54,0 96.5-20.5t70-57.5T481,309V157q-9-51-36.5-88.5t-69-58T281-10Zm7,48q80,0 127.5,53.5T463,232q0,59-21.5,102.5t-61.5,68T287,427q-55,0-97.5-25t-67-69T98,233q0-57 24.5-101T190,63t98-25ZM461,0V125l11,114L461,352V465h51V0H461ZM340,538L186,675l42,41L362,560l-22-22Z" />
      <glyph unicode="&#xe1;" glyph-name="gid60" horiz-adv-x="587" d="M281-10q-67,0-120.5,32T76,108.5T45,232q0,68 31,123t84,87.5T279,475q54,0 96.5-20.5t70-57.5T481,309V157q-9-51-36.5-88.5t-69-58T281-10Zm7,48q80,0 127.5,53.5T463,232q0,59-21.5,102.5t-61.5,68T287,427q-55,0-97.5-25t-67-69T98,233q0-57 24.5-101T190,63t98-25ZM461,0V125l11,114L461,352V465h51V0H461ZM234,540l-22,22L347,719l41-42L234,540Z" />
      <glyph unicode="&#xe2;" glyph-name="gid61" horiz-adv-x="587" d="M281-10q-67,0-120.5,32T76,108.5T45,232q0,68 31,123t84,87.5T279,475q54,0 96.5-20.5t70-57.5T481,309V157q-9-51-36.5-88.5t-69-58T281-10Zm7,48q80,0 127.5,53.5T463,232q0,59-21.5,102.5t-61.5,68T287,427q-55,0-97.5-25t-67-69T98,233q0-57 24.5-101T190,63t98-25ZM461,0V125l11,114L461,352V465h51V0H461ZM164,540l-22,22L279,716h43L459,562l-22-22L284,676h33L164,540Z" />
      <glyph unicode="&#xe3;" glyph-name="gid65" horiz-adv-x="587" d="M281-10q-67,0-120.5,32T76,108.5T45,232q0,68 31,123t84,87.5T279,475q54,0 96.5-20.5t70-57.5T481,309V157q-9-51-36.5-88.5t-69-58T281-10Zm7,48q80,0 127.5,53.5T463,232q0,59-21.5,102.5t-61.5,68T287,427q-55,0-97.5-25t-67-69T98,233q0-57 24.5-101T190,63t98-25ZM461,0V125l11,114L461,352V465h51V0H461ZM374,547q-31,0-53,11t-42.5,22T232,591q-27,0-42-10t-28-28l-29,26q18,25 40.5,40.5T231,635q33,0 56-11t43-22t43-11q24,0 38.5,10T439,629l29-27q-18-24-40.5-39.5T374,547Z" />
      <glyph unicode="&#xe4;" glyph-name="gid62" horiz-adv-x="587" d="M281-10q-67,0-120.5,32T76,108.5T45,232q0,68 31,123t84,87.5T279,475q54,0 96.5-20.5t70-57.5T481,309V157q-9-51-36.5-88.5t-69-58T281-10Zm7,48q80,0 127.5,53.5T463,232q0,59-21.5,102.5t-61.5,68T287,427q-55,0-97.5-25t-67-69T98,233q0-57 24.5-101T190,63t98-25ZM461,0V125l11,114L461,352V465h51V0H461ZM210,548q-17,0-28.5,12.5T170,590t11.5,28.5T210,630t29-11.5T251,590t-12-29.5T210,548Zm180,0q-17,0-28.5,12.5T350,590t11.5,28.5T390,630t29-11.5T431,590t-12-29.5T390,548Z" />
      <glyph unicode="&#xe5;" glyph-name="gid64" horiz-adv-x="587" d="M281-10q-67,0-120.5,32T76,108.5T45,232q0,68 31,123t84,87.5T279,475q54,0 96.5-20.5t70-57.5T481,309V157q-9-51-36.5-88.5t-69-58T281-10Zm7,48q80,0 127.5,53.5T463,232q0,59-21.5,102.5t-61.5,68T287,427q-55,0-97.5-25t-67-69T98,233q0-57 24.5-101T190,63t98-25ZM461,0V125l11,114L461,352V465h51V0H461ZM302,522q-32,0-56.5,14.5T207,575t-14,54q0,31 14,55.5T245.5,723T302,737q31,0 54.5-14T394,684.5T408,630q0-31-14-55.5T356.5,536T302,522Zm1,40q26,0 45,19.5T367,630t-19,48t-45,19q-31,0-49.5-19.5T235,630q0-29 18.5-48.5T303,562Z" />
      <glyph unicode="&#xe6;" glyph-name="gid66" horiz-adv-x="958" d="M707-10q-69,0-124.5,32T495,109T463,233t31,123.5T579.5,443T701,475q64,0 112.5-28.5t76-78.5T917,253q0-6-1-15.5T913,214H499v44H884l-17-14q2,55-18,96.5T791,405t-91,23q-55,0-97-24.5T537.5,336T514,236q0-60 24.5-104.5t68.5-69T710,38q45,0 83.5,16.5T858,104l34-33q-32-38-80.5-59.5T707-10ZM281-10q-67,0-120.5,32T76,108.5T45,232q0,68 31,123t84,87.5T279,475q54,0 96.5-20.5t70-57.5T481,309V157q-9-51-36.5-88.5t-69-58T281-10Zm7,48q80,0 127.5,53.5T463,232q0,59-21.5,102.5t-61.5,68T287,427q-55,0-97.5-25t-67-69T98,233q0-57 24.5-101T190,63t98-25ZM461,0V125l11,114L461,352V465h51V0H461Z" />
      <glyph unicode="&#xe7;" glyph-name="gid69" horiz-adv-x="493" d="M286-10q-68,0-122.5,32.5T77,110.5T45,234T77,356.5T163.5,443T286,475q51,0 96-19t77-54l-34-34q-26,28-61.5,43.5T286,427q-54,0-96.5-25.5T122,333T97,234t25-100t67.5-70T286,38q42,0 78.5,15.5T427,98l34-34Q428,29 382.5,9.5T286-10ZM253-207q-31,0-60,10t-53,29l31,31q14-14 34.5-22t45.5-8q36,0 55,12t19,34q0,21-20.5,33.5T245-75H217l27,85h46L268-60L248-40q59,1 92.5-21.5T374-123t-32-61.5T253-207Z" />
      <glyph unicode="&#xe8;" glyph-name="gid76" horiz-adv-x="540" d="M289-10q-69,0-124.5,32T77,109T45,233T76,356.5T161.5,443T283,475q64,0 112.5-28.5t76-78.5T499,253q0-6-1-15.5T495,214H81v44H466l-17-14q2,55-18,96.5T373,405t-91,23q-55,0-97-24.5T119.5,336T96,236q0-60 24.5-104.5t68.5-69T292,38q45,0 83.5,16.5T440,104l34-33q-32-38-80.5-59.5T289-10Zm33,548L168,675l42,41L344,560l-22-22Z" />
      <glyph unicode="&#xe9;" glyph-name="gid73" horiz-adv-x="540" d="M289-10q-69,0-124.5,32T77,109T45,233T76,356.5T161.5,443T283,475q64,0 112.5-28.5t76-78.5T499,253q0-6-1-15.5T495,214H81v44H466l-17-14q2,55-18,96.5T373,405t-91,23q-55,0-97-24.5T119.5,336T96,236q0-60 24.5-104.5t68.5-69T292,38q45,0 83.5,16.5T440,104l34-33q-32-38-80.5-59.5T289-10ZM217,540l-22,22L330,719l41-42L217,540Z" />
      <glyph unicode="&#xea;" glyph-name="gid74" horiz-adv-x="540" d="M289-10q-69,0-124.5,32T77,109T45,233T76,356.5T161.5,443T283,475q64,0 112.5-28.5t76-78.5T499,253q0-6-1-15.5T495,214H81v44H466l-17-14q2,55-18,96.5T373,405t-91,23q-55,0-97-24.5T119.5,336T96,236q0-60 24.5-104.5t68.5-69T292,38q45,0 83.5,16.5T440,104l34-33q-32-38-80.5-59.5T289-10ZM147,540l-22,22L262,716h43L442,562l-22-22L267,676h33L147,540Z" />
      <glyph unicode="&#xeb;" glyph-name="gid75" horiz-adv-x="540" d="M289-10q-69,0-124.5,32T77,109T45,233T76,356.5T161.5,443T283,475q64,0 112.5-28.5t76-78.5T499,253q0-6-1-15.5T495,214H81v44H466l-17-14q2,55-18,96.5T373,405t-91,23q-55,0-97-24.5T119.5,336T96,236q0-60 24.5-104.5t68.5-69T292,38q45,0 83.5,16.5T440,104l34-33q-32-38-80.5-59.5T289-10ZM193,548q-17,0-28.5,12.5T153,590t11.5,28.5T193,630t29-11.5T234,590t-12-29.5T193,548Zm180,0q-17,0-28.5,12.5T333,590t11.5,28.5T373,630t29-11.5T414,590t-12-29.5T373,548Z" />
      <glyph unicode="&#xec;" glyph-name="gid85" horiz-adv-x="202" d="M75,0V465h52V0H75Zm65,538L-14,675l42,41L162,560l-22-22Z" />
      <glyph unicode="&#xed;" glyph-name="gid82" horiz-adv-x="202" d="M75,0V465h52V0H75ZM35,540L13,562L148,719l41-42L35,540Z" />
      <glyph unicode="&#xee;" glyph-name="gid83" horiz-adv-x="202" d="M75,0V465h52V0H75ZM-35,540l-22,22L80,716h43L260,562l-22-22L85,676h33L-35,540Z" />
      <glyph unicode="&#xef;" glyph-name="gid84" horiz-adv-x="202" d="M75,0V465h52V0H75ZM11,548q-17,0-28.5,12.5T-29,590t11.5,28.5T11,630t29-11.5T52,590T40,560.5T11,548Zm180,0q-17,0-28.5,12.5T151,590t11.5,28.5T191,630t29-11.5T232,590t-12-29.5T191,548Z" />
      <glyph unicode="&#xf0;" glyph-name="gid71" horiz-adv-x="567" d="M284-10q-64,0-116.5,31T83,105T51,221q0,64 30.5,114.5t81,81T274,447q27,0 50.5-6t43-17T403,398l-18,2L166,682h62L458,380q58-77 58-161q0-64-31-116T401.5,20.5T284-10Zm0,47q50,0 90.5,24.5T439,128t24,93q0,52-24,93.5T374.5,380T284,404q-49,0-90-24.5T128.5,313T104,221t24.5-91.5t65-67T284,37ZM123,504l-15,38L408,653l15-38L123,504Z" />
      <glyph unicode="&#xf1;" glyph-name="gid92" horiz-adv-x="541" d="M425,0V276q0,68-40,110T279,428q-45,0-79.5-19.5t-54-53.5T126,276l-26,15q0,53 25,94.5T193,451t98,24t96.5-25.5T452,380t23-98V0H425ZM75,0V465h51V0H75ZM345,547q-31,0-53,11t-42.5,22T203,591q-27,0-42-10t-28-28l-29,26q18,25 40.5,40.5T202,635q33,0 56-11t43-22t43-11q24,0 38.5,10T410,629l29-27q-18-24-40.5-39.5T345,547Z" />
      <glyph unicode="&#xf2;" glyph-name="gid97" horiz-adv-x="571" d="M286-10q-68,0-122.5,32.5T77,110.5T45,234T77,356.5T163.5,443T286,475q67,0 121.5-32T494,356.5T526,234q0-69-32-124T407.5,22.5T286-10Zm0,48q53,0 95.5,26t67,70.5T473,235q0,55-24.5,98t-67,68.5T286,427q-54,0-96.5-25.5T122,333T97,234t25-100t67.5-70T286,38Zm39,500L171,675l42,41L347,560l-22-22Z" />
      <glyph unicode="&#xf3;" glyph-name="gid94" horiz-adv-x="571" d="M286-10q-68,0-122.5,32.5T77,110.5T45,234T77,356.5T163.5,443T286,475q67,0 121.5-32T494,356.5T526,234q0-69-32-124T407.5,22.5T286-10Zm0,48q53,0 95.5,26t67,70.5T473,235q0,55-24.5,98t-67,68.5T286,427q-54,0-96.5-25.5T122,333T97,234t25-100t67.5-70T286,38ZM220,540l-22,22L333,719l41-42L220,540Z" />
      <glyph unicode="&#xf4;" glyph-name="gid95" horiz-adv-x="571" d="M286-10q-68,0-122.5,32.5T77,110.5T45,234T77,356.5T163.5,443T286,475q67,0 121.5-32T494,356.5T526,234q0-69-32-124T407.5,22.5T286-10Zm0,48q53,0 95.5,26t67,70.5T473,235q0,55-24.5,98t-67,68.5T286,427q-54,0-96.5-25.5T122,333T97,234t25-100t67.5-70T286,38ZM149,540l-22,22L264,716h43L444,562l-22-22L269,676h33L149,540Z" />
      <glyph unicode="&#xf5;" glyph-name="gid99" horiz-adv-x="571" d="M286-10q-68,0-122.5,32.5T77,110.5T45,234T77,356.5T163.5,443T286,475q67,0 121.5-32T494,356.5T526,234q0-69-32-124T407.5,22.5T286-10Zm0,48q53,0 95.5,26t67,70.5T473,235q0,55-24.5,98t-67,68.5T286,427q-54,0-96.5-25.5T122,333T97,234t25-100t67.5-70T286,38Zm74,509q-31,0-53,11t-42.5,22T218,591q-27,0-42-10t-28-28l-29,26q18,25 40.5,40.5T217,635q33,0 56-11t43-22t43-11q24,0 38.5,10T425,629l29-27q-18-24-40.5-39.5T360,547Z" />
      <glyph unicode="&#xf6;" glyph-name="gid96" horiz-adv-x="571" d="M286-10q-68,0-122.5,32.5T77,110.5T45,234T77,356.5T163.5,443T286,475q67,0 121.5-32T494,356.5T526,234q0-69-32-124T407.5,22.5T286-10Zm0,48q53,0 95.5,26t67,70.5T473,235q0,55-24.5,98t-67,68.5T286,427q-54,0-96.5-25.5T122,333T97,234t25-100t67.5-70T286,38ZM196,548q-17,0-28.5,12.5T156,590t11.5,28.5T196,630t29-11.5T237,590t-12-29.5T196,548Zm180,0q-17,0-28.5,12.5T336,590t11.5,28.5T376,630t29-11.5T417,590t-12-29.5T376,548Z" />
      <glyph unicode="&#xf7;" glyph-name="gid217" horiz-adv-x="531" d="M70,311v44H462V311H70ZM265,452q-17,0-28,12t-11,29q0,18 11,29.5T265,534q18,0 29.5-11.5T306,493q0-17-11.5-29T265,452Zm0-320q-17,0-28,12.5T226,174t11,28.5T265,214q18,0 29.5-11.5T306,174t-11.5-29.5T265,132Z" />
      <glyph unicode="&#xf8;" glyph-name="gid98" horiz-adv-x="571" d="M69-17L36,16L502,482l33-33L69-17Zm217,7q-68,0-122.5,32.5T77,110.5T45,234T77,356.5T163.5,443T286,475q67,0 121.5-32T494,356.5T526,234q0-69-32-124T407.5,22.5T286-10Zm0,48q53,0 95.5,26t67,70.5T473,235q0,55-24.5,98t-67,68.5T286,427q-54,0-96.5-25.5T122,333T97,234t25-100t67.5-70T286,38Z" />
      <glyph unicode="&#xf9;" glyph-name="gid112" horiz-adv-x="513" d="M257-10q-56,0-100,26T88.5,88T64,194V465h51V196q0-47 17.5-82.5T182,58t75-20q64,0 102.5,43.5T398,196V465h51V194q0-60-24.5-106t-68-72T257-10Zm39,548L142,675l42,41L318,560l-22-22Z" />
      <glyph unicode="&#xfa;" glyph-name="gid109" horiz-adv-x="513" d="M257-10q-56,0-100,26T88.5,88T64,194V465h51V196q0-47 17.5-82.5T182,58t75-20q64,0 102.5,43.5T398,196V465h51V194q0-60-24.5-106t-68-72T257-10ZM191,540l-22,22L304,719l41-42L191,540Z" />
      <glyph unicode="&#xfb;" glyph-name="gid110" horiz-adv-x="513" d="M257-10q-56,0-100,26T88.5,88T64,194V465h51V196q0-47 17.5-82.5T182,58t75-20q64,0 102.5,43.5T398,196V465h51V194q0-60-24.5-106t-68-72T257-10ZM120,540L98,562L235,716h43L415,562l-22-22L240,676h33L120,540Z" />
      <glyph unicode="&#xfc;" glyph-name="gid111" horiz-adv-x="513" d="M257-10q-56,0-100,26T88.5,88T64,194V465h51V196q0-47 17.5-82.5T182,58t75-20q64,0 102.5,43.5T398,196V465h51V194q0-60-24.5-106t-68-72T257-10ZM167,548q-17,0-28.5,12.5T127,590t11.5,28.5T167,630t29-11.5T208,590t-12-29.5T167,548Zm180,0q-17,0-28.5,12.5T307,590t11.5,28.5T347,630t29-11.5T388,590t-12-29.5T347,548Z" />
      <glyph unicode="&#xfd;" glyph-name="gid117" horiz-adv-x="506" d="M234-1L27,465H83L262,52H236L423,465h56L260-1H234ZM113-197L233,49L260-1L168-197H113Zm74,737l-22,22L300,719l41-42L187,540Z" />
      <glyph unicode="&#xfe;" glyph-name="gid102" horiz-adv-x="587" d="M311-10q-52,0-95.5,21T143,69.5T105,157V309q9,51 38.5,88.5t73,57.5T311,475q66,0 118-32t82-87t30-124T511,108.5T429,22T311-10ZM75-197V702h51V349L114,236l12-114V-197H75ZM302,38q55,0 97.5,25t66,69T489,233T465.5,334T400,402.5T305,427q-54,0-94.5-24.5T147,334T124,232q0-57 22.5-100.5t63-68.5T302,38Z" />
      <glyph unicode="&#xff;" glyph-name="gid118" horiz-adv-x="506" d="M234-1L27,465H83L262,52H236L423,465h56L260-1H234ZM113-197L233,49L260-1L168-197H113Zm50,745q-17,0-28.5,12.5T123,590t11.5,28.5T163,630t29-11.5T204,590t-12-29.5T163,548Zm180,0q-17,0-28.5,12.5T303,590t11.5,28.5T343,630t29-11.5T384,590t-12-29.5T343,548Z" />
      <glyph unicode="&#x2013;" glyph-name="gid176" horiz-adv-x="540" d="M75,231v43H465V231H75Z" />
      <glyph unicode="&#x2014;" glyph-name="gid177" horiz-adv-x="834" d="M75,232v42H757V232H75Z" />
      <glyph unicode="&#x2018;" glyph-name="gid189" horiz-adv-x="243" d="M168,694L116,591l-19-4q3,8 9.5,13.5T123,606q17,0 30.5-13T167,560t-15-35t-35-15T82.5,524.5T68,560q0,9 3,20.5T82,610l53,102l33-18Z" />
      <glyph unicode="&#x2019;" glyph-name="gid190" horiz-adv-x="242" d="M75,508l52,103l20,4q-3-8-9.5-13.5T120,596q-17,0-30.5,13.5T76,642q0,21 15,35.5T127,692q19,0 33.5-14.5T175,642q0-8-2.5-19.5T161,592L109,490L75,508Z" />
      <glyph unicode="&#x201a;" glyph-name="gid185" horiz-adv-x="272" d="M90-96L142,7l20,4q-3-8-9.5-13.5T135-8Q118-8 104.5,5T91,38q0,21 15,35.5T142,88q19,0 33.5-14.5T190,38q0-9-2.5-20.5T176-12L124-114L90-96Z" />
      <glyph unicode="&#x201c;" glyph-name="gid187" horiz-adv-x="387" d="M168,694L116,591l-19-4q3,8 9.5,13.5T123,606q17,0 30.5-13T167,560t-15-35t-35-15T82.5,524.5T68,560q0,9 3,20.5T82,610l53,102l33-18Zm144,0L260,591l-19-4q3,8 9.5,13.5T267,606q17,0 30.5-13T311,560t-15-35t-35-15t-34.5,14.5T212,560q0,9 3,20.5T226,610l53,102l33-18Z" />
      <glyph unicode="&#x201d;" glyph-name="gid188" horiz-adv-x="386" d="M219,508l52,103l20,4q-3-8-9.5-13.5T264,596q-17,0-30.5,13.5T220,642q0,21 15,35.5T271,692q19,0 33.5-14.5T319,642q0-8-2.5-19.5T305,592L253,490l-34,18ZM75,508l52,103l20,4q-3-8-9.5-13.5T120,596q-17,0-30.5,13.5T76,642q0,21 15,35.5T127,692q19,0 33.5-14.5T175,642q0-8-2.5-19.5T161,592L109,490L75,508Z" />
      <glyph unicode="&#x201e;" glyph-name="gid186" horiz-adv-x="416" d="M234-96L286,7l20,4q-3-8-9.5-13.5T279-8Q262-8 248.5,5.5T235,38q0,21 15,35.5T286,88q19,0 33.5-14.5T334,38q0-8-2.5-19.5T320-12L268-114L234-96ZM90-96L142,7l20,4q-3-8-9.5-13.5T135-8Q118-8 104.5,5.5T91,38q0,21 15,35.5T142,88q19,0 33.5-14.5T190,38q0-8-2.5-19.5T176-12L124-114L90-96Z" />
      <glyph unicode="&#x2022;" glyph-name="gid170" horiz-adv-x="305" d="M153,276q-24,0-42,11T82.5,317T72,358q0,23 10.5,41T111,428.5T153,440t42-11.5T223,399t10-41q0-22-10-41t-28-30t-42-11Z" />
      <glyph unicode="&#x2039;" glyph-name="gid193" horiz-adv-x="268" d="M167,83L48,236L167,390h54L100,236L221,83H167Z" />
      <glyph unicode="&#x203a;" glyph-name="gid194" horiz-adv-x="268" d="M47,83L169,236L47,390h54L220,236L101,83H47Z" />
    </font>
</defs>
</svg>
