<?xml version="1.0" standalone="no"?>
<!DOCTYPE svg PUBLIC "-//W3C//DTD SVG 1.1//EN" "http://www.w3.org/Graphics/SVG/1.1/DTD/svg11.dtd">
<svg xmlns="http://www.w3.org/2000/svg">
  <defs>
    <font id="Outfit" horiz-adv-x="606">
      <font-face font-family="Outfit Thin Black" units-per-em="1000" panose-1="0 0 0 0 0 0 0 0 0 0" ascent="1000" descent="-260" alphabetic="0" />
      <glyph unicode=" " glyph-name="gid158" horiz-adv-x="180" />
      <glyph unicode="!" glyph-name="gid165" horiz-adv-x="309" d="M82,283L47,732H262L227,283H82ZM155-12q-47,0-78,32T46,98q0,47 31,79t78,32t77.5-32T263,98q0-46-30.5-78T155-12Z" />
      <glyph unicode="&quot;" glyph-name="gid195" horiz-adv-x="486" d="M298,404L267,732H442L411,404H298ZM75,404L44,732H220L188,404H75Z" />
      <glyph unicode="#" glyph-name="gid172" horiz-adv-x="683" d="M316,0L440,712H596L471,0H316ZM27,193V323H621V193H27ZM81,0L206,712H360L237,0H81ZM63,404V533H656V404H63Z" />
      <glyph unicode="$" glyph-name="gid209" horiz-adv-x="622" d="M296-12q-88,0-153,26.5T23,99L144,224q38-37 79-56.5T312,148q40,0 60,12.5T392,195t-17.5,36.5t-46,26T266,281t-68,29t-62.5,41.5t-46,61T72,502q0,69 32,119t90,76.5T330,724q77,0 143.5-25.5T583,626L461,501q-31,32-63,47.5T328,564q-30,0-48-10t-18-30q0-21 17.5-34.5t46-24.5T388,442t68-28.5t62.5-42t46-63.5T582,216q0-109-74.5-168.5T296-12Zm-50-90V814H386V-102H246Z" />
      <glyph unicode="%" glyph-name="gid226" horiz-adv-x="711" d="M72,0L469,712H639L242,0H72ZM530-10q-42,0-77,20.5T397.5,66T377,144t20.5,77t55,54.5T530,296q44,0 79-20.5T664.5,221T685,144T664.5,66T609,10.5T530-10Zm1,123q13,0 21.5,8.5T561,143t-8.5,21.5T531,173t-21.5-8.5T501,143t8.5-21.5T531,113ZM179,416q-42,0-77,20.5T46.5,492T26,570t20.5,77t55,54.5T179,722q44,0 79-20.5T313.5,647T334,570t-20.5-78T258,436.5T179,416Zm1,123q13,0 21.5,8.5T210,569t-8.5,21.5T180,599t-21.5-8.5T150,569t8.5-21.5T180,539Z" />
      <glyph unicode="&amp;" glyph-name="gid198" horiz-adv-x="712" d="M490,0L174,349q-38,43-53.5,81T105,513q0,55 28.5,103t79,78T330,724q54,0 94.5-14.5t68.5-36T534,631L409,506q-18,25-36,33.5T335,548q-22,0-35.5-12.5T286,506q0-11 5.5-23T308,458L716,0H490ZM266-12q-72,0-125.5,29.5T57.5,97T28,208q0,68 35,121.5T171,416l80-132q-23-7-33.5-24T207,224q0-15 7-29t21-23t34-9q17,0 33,8.5T334,203L469,74q-14-18-43.5-38T355,2T266-12Z" />
      <glyph unicode="&apos;" glyph-name="gid196" horiz-adv-x="258" d="M72,404L41,732H217L185,404H72Z" />
      <glyph unicode="(" glyph-name="gid179" horiz-adv-x="320" d="M209-136Q149-84 107.5-14.5t-63,153T23,314q0,93 21.5,176t63,153T209,764L314,659q-62-64-93.5-149.5T189,314q0-109 31.5-195T314-31L209-136Z" />
      <glyph unicode=")" glyph-name="gid180" horiz-adv-x="320" d="M111-136L6-31Q68,33 99.5,119T131,314q0,110-31.5,195.5T6,659L111,764q61-51 102-121t62.5-153T297,314q0-92-21.5-175.5T213-14.5T111-136Z" />
      <glyph unicode="*" glyph-name="gid171" horiz-adv-x="488" d="M202,292l3,156L88,357L21,487l140,44L44,614L147,718l80-120l43,144l130-68L310,553l151,3L437,411L297,463l50-146L202,292Z" />
      <glyph unicode="+" glyph-name="gid214" horiz-adv-x="579" d="M45,257V411H534V257H45ZM211,592H369V78H211V592Z" />
      <glyph unicode="," glyph-name="gid161" horiz-adv-x="290" d="M46-124L124,22l54,15q-9-17-21-28.5T130-3Q96-3 67.5,25.5T39,97q0,46 31,79t78,33q44,0 76.5-32.5T257,97q0-19-7-44T221-12L134-172L46-124Z" />
      <glyph unicode="-" glyph-name="gid175" horiz-adv-x="463" d="M47,173V337H416V173H47Z" />
      <glyph unicode="." glyph-name="gid160" horiz-adv-x="309" d="M155-12q-47,0-78,32T46,98q0,47 31,79t78,32t77.5-32T263,98q0-46-30.5-78T155-12Z" />
      <glyph unicode="/" glyph-name="gid173" horiz-adv-x="367" d="M-3-70L207,770H370L160-70H-3Z" />
      <glyph unicode="0" glyph-name="gid130" horiz-adv-x="676" d="M339-12q-92,0-163.5,47.5T63,166.5T22,357T62.5,547T174,677t163,47q93,0 164.5-47t112-130T654,356T613.5,165T502,35T339-12Zm-1,170q37,0 63,23t39.5,67.5T454,356T440.5,463T401,530.5T337,554q-36,0-62-23t-39.5-67T222,357t13.5-107.5t39.5-68T338,158Z" />
      <glyph unicode="1" glyph-name="gid131" horiz-adv-x="401" d="M146,0V712H344V0H146ZM13,548V712H334V548H13Z" />
      <glyph unicode="2" glyph-name="gid132" horiz-adv-x="587" d="M20,107L304,393q17,17 27.5,31.5t15,27.5t4.5,27q0,35-22.5,55.5T268,555q-34,0-63-20.5T143,465L13,582q44,70 113.5,106T285,724q81,0 139.5-28.5t90-81.5T546,488q0-41-11-77t-35-70.5T438,270L259,100L20,107ZM20,0V107l166,57H561V0H20Z" />
      <glyph unicode="3" glyph-name="gid133" horiz-adv-x="578" d="M259-12q-76,0-141.5,25.5T7,86L132,209q17-24 52-39.5T256,154q30,0 53.5,10t37,29T360,239t-14,46t-40,29t-62,10q-20,0-42.5-2.5T167,314l87,108q35,8 62.5,13.5T365,441q54,0 97-25t68-71.5T555,234q0-73-36.5-128.5T415.5,19T259-12ZM167,314V421L324,606l213-1L375,422L167,314ZM60,548V712H537V605L390,548H60Z" />
      <glyph unicode="4" glyph-name="gid134" horiz-adv-x="618" d="M14,240L228,712H440L221,240H14Zm0-107V240l54,57H602V133H14ZM348,0V416H543V0H348Z" />
      <glyph unicode="5" glyph-name="gid135" horiz-adv-x="575" d="M260-12q-73,0-142.5,25.5T3,86L129,209q17-24 51.5-39.5T252,154q32,0 55,11t36,31.5T356,244t-13.5,48.5t-39.5,34T239,339q-32,0-60-10t-48-25l22,128q30,15 51,25t43,14.5t52,4.5q83,0 139-33t85-87.5T552,237q0-73-35.5-129.5T416,19.5T260-12ZM131,304L58,368L95,712H273L236,387L131,304ZM117,548L95,712H513V548H117Z" />
      <glyph unicode="6" glyph-name="gid136" horiz-adv-x="584" d="M292-12q-78,0-140.5,33t-99,89.5T16,238q0,84 58,169L281,712H503L264,382l-75,16q17,25 32.5,43t38,28T319,479q70,0 126-32.5t89.5-87T568,238q0-71-36.5-127.5T433,21T292-12Zm0,166q25,0 44.5,11.5t30.5,32T378,244t-11,46.5t-30.5,32T292,334t-44.5-11.5t-30.5-32T206,244t11-46.5t30.5-32T292,154Z" />
      <glyph unicode="7" glyph-name="gid137" horiz-adv-x="532" d="M102,0L326,605H519L306,0H102ZM13,548V712H519V605l-56-57H13Z" />
      <glyph unicode="8" glyph-name="gid138" horiz-adv-x="576" d="M288-12q-81,0-141,27.5t-93,75T21,199q0,53 20,94t55.5,67T177,394l-3-33q-40,7-68.5,31.5T61.5,453T46,527q0,57 30.5,101.5t85,70T288,724t126-25.5t84.5-70T529,527q0-38-15-74t-43.5-60.5T402,361l-4,33q46-8 81.5-34T535,293t20-94q0-61-33-108.5t-93-75T288-12Zm0,164q23,0 40.5,10T356,189.5T366,229t-10,39t-27.5,27T288,305t-40.5-10T220,268t-10-39t10-39.5T247.5,162T288,152Zm0,292q26,0 42.5,16.5T347,502q0,26-16.5,43.5T288,563t-43-16.5T228,504q0-25 17-42.5T288,444Z" />
      <glyph unicode="9" glyph-name="gid139" horiz-adv-x="584" d="M81,0L320,330l75-16q-17-25-32.5-43T325,243t-60-10q-69,0-125.5,32.5t-90,87T16,474q0,71 36.5,127.5t99,89.5T292,724q79,0 141-33t98.5-89.5T568,474q0-84-58-169L303,0H81ZM292,378q25,0 44.5,11.5t30.5,32T378,468t-11,46.5t-30.5,32T292,558t-44.5-11.5t-30.5-32T206,468t11-46.5t30.5-32T292,378Z" />
      <glyph unicode=":" glyph-name="gid162" horiz-adv-x="309" d="M155-12q-47,0-78,32T46,98q0,47 31,79t78,32t77.5-32T263,98q0-46-30.5-78T155-12Zm0,283q-47,0-78,32T46,381q0,47 31,79t78,32t77.5-32T263,381q0-46-30.5-78T155,271Z" />
      <glyph unicode=";" glyph-name="gid163" horiz-adv-x="291" d="M45-124L123,22l54,15q-9-17-21-28.5T129-3Q95-3 66.5,25.5T38,97q0,46 31,79t78,33q44,0 76.5-32.5T256,97q0-19-7-44T220-12L133-172L45-124ZM148,271q-47,0-78,32T39,381q0,47 31,79t78,32t77.5-32T256,381q0-46-30.5-78T148,271Z" />
      <glyph unicode="&lt;" glyph-name="gid220" horiz-adv-x="579" d="M536,73L43,270V400L536,597V431L176,295v80L536,239V73Z" />
      <glyph unicode="=" glyph-name="gid218" horiz-adv-x="579" d="M45,377V531H534V377H45Zm0-250V281H534V127H45Z" />
      <glyph unicode="&gt;" glyph-name="gid219" horiz-adv-x="579" d="M43,431V597L536,400V270L43,73V239L403,375V295L43,431Z" />
      <glyph unicode="?" glyph-name="gid167" horiz-adv-x="492" d="M185,278L170,468h58q17,0 30,5.5T278,490t7,26t-7,25.5t-18.5,16T232,563q-31,0-58.5-20T128,496L12,613q30,54 87.5,92.5T241,744q67,0 118.5-29.5t80.5-78T469,530q0-64-24.5-106t-64-66.5T296,322l43,69l-8-113H185ZM258-12q-47,0-78,32T149,98q0,47 31,79t78,32t77.5-32T366,98q0-46-30.5-78T258-12Z" />
      <glyph unicode="@" glyph-name="gid197" horiz-adv-x="775" d="M393-128q-76,0-141,26.5T138-28T61.5,82.5T34,220T62,357.5t77.5,111t116,74T399,569q101,0 178-42.5t120-118T740,232q0-52-10-92T699,68H561q16,19 27,45t16.5,56.5T610,232q0,71-26,118t-72.5,70.5T403,444q-65,0-117.5-26t-83-76T172,219q0-70 29-120t79-76T392-3q44,0 79,12.5T537,45l87-89q-46-42-106-63T393-128ZM371,66q-37,0-71,20.5T245,142t-21,78q0,45 21,81t55,57t71,21q47,0 74.5-20.5T473,284V158q0-52-27-72T371,66Zm9,110q21,0 31.5,14T422,221q0,18-11,31t-31,13q-19,0-30-13t-11-31q0-19 11-32t30-13ZM499,68V170H699V68H499Zm-59,0v83l13,73l-13,73v73H551V68H440Z" />
      <glyph unicode="A" glyph-name="gid1" horiz-adv-x="755" d="M6,0L277,712H481L749,0H541L342,605h72L210,0H6ZM182,120V276H580V120H182Z" />
      <glyph unicode="B" glyph-name="gid10" horiz-adv-x="659" d="M221,0V144H352q38,0 61,20.5T436,221q0,24-10.5,41.5t-29,26.5T352,298H221V436H343q32,0 53,16t21,50t-21,50t-53,16H221V712H399q65,0 113.5-24.5t75.5-67T615,523q0-76-54-124T403,344l-2,69q113-7 173-62t60-141q0-62-31-109.5t-86.5-74T387,0H221ZM59,0V712H255V0H59Z" />
      <glyph unicode="C" glyph-name="gid11" horiz-adv-x="695" d="M411-12q-82,0-152.5,27.5T135,93T52.5,210.5T23,357q0,80 29.5,147t82,116T257,696.5T409,724q83,0 152-26t120-72L548,492q-24,26-58.5,41T409,548q-40,0-73.5-13T278,497t-37.5-60.5T227,357q0-45 13.5-80.5T278,216t57.5-38.5T409,164q45,0 80.5,14T551,219L685,85Q632,39 566,13.5T411-12Z" />
      <glyph unicode="D" glyph-name="gid13" horiz-adv-x="768" d="M193,0V170H359q56,0 97,20.5T519,253t22,104T518.5,460t-63,61.5T359,542H183V712H359q84,0 154.5-25T636,615t80.5-112.5T745,356T716.5,209.5T636,97T514,25T361,0H193ZM59,0V712H259V0H59Z" />
      <glyph unicode="E" glyph-name="gid15" horiz-adv-x="639" d="M59,0V712H259V0H59ZM221,0V166H603V0H221Zm0,282V444H566V282H221Zm0,264V712H597V546H221Z" />
      <glyph unicode="F" glyph-name="gid20" horiz-adv-x="614" d="M59,0V712H259V0H59ZM221,253V419H571V253H221Zm0,293V712H586V546H221Z" />
      <glyph unicode="G" glyph-name="gid21" horiz-adv-x="797" d="M410-12q-83,0-153.5,27.5T133.5,93T52,210T23,356q0,80 30.5,147t85,116.5t126.5,77T419,724q99,0 177.5-34T724,598L589,463q-37,43-77,64t-96,21q-53,0-96-23.5T251.5,458T226,357t23.5-101.5T315,188t98-24q54,0 91,21t56.5,60T580,337l137-87L386,260V420H781V390q0-128-46.5-218T604.5,35T410-12Z" />
      <glyph unicode="H" glyph-name="gid22" horiz-adv-x="748" d="M59,0V712H259V0H59ZM489,0V712H689V0H489ZM168,280V446H567V280H168Z" />
      <glyph unicode="I" glyph-name="gid23" horiz-adv-x="318" d="M59,0V712H259V0H59Z" />
      <glyph unicode="J" glyph-name="gid28" horiz-adv-x="569" d="M222-12Q149-12 97.5,12.5T5,84L133,212q19-24 42.5-36T230,164q25,0 45.5,10.5t33,32T321,262V712H522V270q0-88-36-151T383,22T222-12Z" />
      <glyph unicode="K" glyph-name="gid29" horiz-adv-x="737" d="M491,0L242,371L479,712H720L446,342v64L731,0H491ZM59,0V712H259V0H59Z" />
      <glyph unicode="L" glyph-name="gid30" horiz-adv-x="572" d="M59,0V712H259V0H59ZM222,0V170H555V0H222Z" />
      <glyph unicode="M" glyph-name="gid31" horiz-adv-x="874" d="M59,0V712H204L469,324H406L670,712H815V0H617V384l29-8L501,168H373L229,376l28,8V0H59Z" />
      <glyph unicode="N" glyph-name="gid32" horiz-adv-x="758" d="M59,0V712H199l60-150V0H59ZM549,0L136,519l63,193L612,193L549,0Zm0,0L499,158V712H699V0H549Z" />
      <glyph unicode="O" glyph-name="gid34" horiz-adv-x="818" d="M411-14q-84,0-154.5,28t-123,78T52,210T23,357q0,80 28.5,147T132,621t122.5,77.5T409,726t154.5-27.5T686,621t80.5-117.5T795,356q0-79-28.5-146.5T686,91.5t-122-78T411-14Zm-2,176q56,0 97,24t63,68t22,103q0,44-12.5,79.5t-36.5,61t-57.5,39T409,550q-56,0-97-23.5t-63-67T227,357q0-45 12.5-81T276,214.5t57.5-39T409,162Z" />
      <glyph unicode="P" glyph-name="gid42" horiz-adv-x="652" d="M221,250V394H350q23,0 42.5,9.5t31.5,29T436,481t-12,48.5t-31.5,29T350,568H221V712H389q69,0 124.5-27.5t88-79T634,481q0-72-32.5-124t-88-79.5T389,250H221ZM59,0V712H259V0H59Z" />
      <glyph unicode="Q" glyph-name="gid44" horiz-adv-x="818" d="M411-14q-84,0-154.5,28t-123,78T52,210T23,357q0,80 28.5,147T132,621t122.5,77.5T409,726t154.5-27.5T686,621t80.5-117.5T795,356q0-79-28.5-146.5T686,91.5t-122-78T411-14ZM720-65L375,280L483,388L828,43L720-65ZM409,162q56,0 97,24t63,68t22,103q0,44-12.5,79.5t-36.5,61t-57.5,39T409,550q-56,0-97-23.5t-63-67T227,357q0-45 12.5-81T276,214.5t57.5-39T409,162Z" />
      <glyph unicode="R" glyph-name="gid45" horiz-adv-x="675" d="M221,284V422H342q41,0 62.5,20T426,495t-21.5,53T342,568H221V712H374q74,0 130-27t88-75t32-112T591.5,386T501,311T364,284H221ZM59,0V712H259V0H59ZM443,0L249,304l180,39L670,0H443Z" />
      <glyph unicode="S" glyph-name="gid46" horiz-adv-x="609" d="M289-12q-91,0-158.5,26.5T6,99L131,224q39-37 82-56.5T305,148q41,0 62,12.5T388,195t-18,36.5t-47.5,26t-65,23.5T187,310t-64.5,41.5T75,412.5T57,502q0,69 33,119t93,76.5T324,724q80,0 148.5-25.5T586,626L460,501q-33,32-66,47.5T322,564q-31,0-49.5-10T254,524q0-21 18-34.5T319.5,465t65-23T455,413.5t64.5-42T567,308t18-92q0-109-77.5-168.5T289-12Z" />
      <glyph unicode="T" glyph-name="gid47" horiz-adv-x="659" d="M229,0V712H429V0H229ZM16,542V712H643V542H16Z" />
      <glyph unicode="U" glyph-name="gid48" horiz-adv-x="714" d="M358-12q-94,0-164,38.5T85,133T46,289V712H246V271q0-34 15-58t40.5-36.5T358,164q32,0 56.5,12.5t38.5,36T467,270V712H668V288q0-88-38.5-155.5t-108-106T358-12Z" />
      <glyph unicode="V" glyph-name="gid53" horiz-adv-x="730" d="M268,0L7,712H219L412,137H318L514,712H723L458,0H268Z" />
      <glyph unicode="W" glyph-name="gid54" horiz-adv-x="1022" d="M232,0L8,712H207L365,164H273L429,712H594L750,164H659L817,712h197L790,0H624L468,547h86L398,0H232Z" />
      <glyph unicode="X" glyph-name="gid55" horiz-adv-x="732" d="M491,0L303,317H286L19,712H257L439,413h17L726,0H491ZM6,0L262,381l162-68L235,0H6ZM459,331L297,399L484,712H713L459,331Z" />
      <glyph unicode="Y" glyph-name="gid56" horiz-adv-x="701" d="M275,245L4,712H234L439,331H267L472,712H697L424,245H275ZM252,0V318H452V0H252Z" />
      <glyph unicode="Z" glyph-name="gid58" horiz-adv-x="626" d="M26,139L354,573H598L269,139H26ZM26,0V139l109,26H589V0H26ZM42,547V712H598V573L487,547H42Z" />
      <glyph unicode="[" glyph-name="gid183" horiz-adv-x="356" d="M57-96V732H211V-96H57Zm77,0V41H325V-96H134Zm0,691V732H325V595H134Z" />
      <glyph unicode="\" glyph-name="gid174" horiz-adv-x="367" d="M207-70L-3,770H160L370-70H207Z" />
      <glyph unicode="]" glyph-name="gid184" horiz-adv-x="356" d="M145-96V732H299V-96H145ZM31-96V41H222V-96H31Zm0,691V732H222V595H31Z" />
      <glyph unicode="^" glyph-name="gid224" horiz-adv-x="481" d="M314,447L207,660h68L167,447H22L183,732H298L459,447H314Z" />
      <glyph unicode="_" glyph-name="gid178" horiz-adv-x="529" d="M0-183V-39H529V-183H0Z" />
      <glyph unicode="`" glyph-name="gid239" horiz-adv-x="353" d="M263,542L40,622l83,152L313,639l-50-97Z" />
      <glyph unicode="a" glyph-name="gid59" horiz-adv-x="610" d="M252-10q-69,0-122,33T47,113.5T17,246T47,379t83,90.5T252,502q43,0 79.5-14.5t61-40.5T424,387V105q-7-34-31.5-60t-61-40.5T252-10Zm44,172q37,0 59.5,23.5T378,246q0,25-10,43.5T339.5,319T297,330t-42.5-11T225,289t-11-43t10.5-43T254,173t42-11ZM372,0V132l27,120L372,371V492H563V0H372Z" />
      <glyph unicode="b" glyph-name="gid67" horiz-adv-x="610" d="M350-10q-44,0-83,17T201,52.5T166,115V387q8,34 35,60t66,40.5T350,502q73,0 127.5-32.5t85-90.5T593,246T562.5,113.5T477.5,23T350-10ZM47,0V732H243V371L211,252l27-120V0H47ZM314,162q24,0 42.5,11t29,30T396,246t-10.5,43T356,319t-43,11t-42.5-11T242,289.5T232,246t10.5-44t29-29.5T314,162Z" />
      <glyph unicode="c" glyph-name="gid68" horiz-adv-x="505" d="M296-12q-80,0-144,33T51,112.5T14,245q0,75 37.5,133.5t102,92T299,504q58,0 104.5-18T490,431L367,308q-13,12-29,18t-39,6q-24,0-43.5-10.5T224,292t-12-45t12-45.5T256,171t43-11q26,0 43,8t30,22L495,67Q452,27 405,7.5T296-12Z" />
      <glyph unicode="d" glyph-name="gid70" horiz-adv-x="610" d="M260-10q-73,0-127.5,33t-85,90.5T17,246T47.5,379t85,90.5T260,502q44,0 83-14.5T409.5,447T444,387V115q-7-34-34.5-62.5T343,7T260-10Zm36,172q25,0 43,10.5T367.5,202T378,246t-10,43.5T339.5,319T297,330t-42.5-11T225,289t-11-43t10.5-43T254,173t42-11ZM563,0H372V132l27,120L367,371V732H563V0Z" />
      <glyph unicode="e" glyph-name="gid72" horiz-adv-x="561" d="M303-12q-86,0-151,32.5t-101.5,91T14,246q0,75 35.5,133T147,470.5T287,504q77,0 136-31.5T515.5,385T549,257q0-15-1.5-31.5T541,187L97,184V304l371,3l-91-53q0,40-9.5,65.5T339,358t-48,13q-30,0-52-15t-33.5-43T194,245q0-41 12.5-68.5T243,135t60-14q35,0 61.5,11.5T413,169l98-97Q474,30 422,9T303-12Z" />
      <glyph unicode="f" glyph-name="gid77" horiz-adv-x="468" d="M105,0V512q0,64 28,116.5t81,84T342,744q56,0 99.5-18T514,678L393,557q-7,8-18,11.5T352,572q-23,0-37-14t-14-37V0H105ZM5,332V492H436V332H5Z" />
      <glyph unicode="g" glyph-name="gid78" horiz-adv-x="592" d="M258-226q-83,0-147,27.5T12-121L128-6q23-25 51-39.5T247-60q48,0 75.5,23T350,30V160l32,106L355,371V492H546V38q0-81-38-140T405-193.5T258-226ZM249,20q-69,0-122,32T44,139T14,261q0,68 30,122.5T127,470t122,32q43,0 79.5-14.5t61-40.5T421,387V135q-7-34-31.5-60t-61-40.5T249,20Zm36,167q24,0 41,11t26,28t9,36t-9,36t-25.5,28T286,337q-23,0-40-11t-26-28.5T211,262q0-17 9-34.5t25.5-29T285,187Z" />
      <glyph unicode="h" glyph-name="gid79" horiz-adv-x="593" d="M360,0V276q0,29-16.5,44.5T302,336q-17,0-30.5-7t-21-20.5T243,276l-76,34q0,60 24.5,103t68,66T361,502q60,0 104-23.5t67.5-64T556,321V0H360ZM47,0V732H243V0H47Z" />
      <glyph unicode="i" glyph-name="gid80" horiz-adv-x="288" d="M46,0V492H242V0H46Zm98,538q-43,0-71.5,29.5T44,640t28.5,72.5T144,742q44,0 72-29.5T244,640t-28-72.5T144,538Z" />
      <glyph unicode="j" glyph-name="gid86" horiz-adv-x="303" d="M38-226q-55,0-96.5,19T-129-156L-10-37Q0-47 8.5-50.5T25-54q17,0 26.5,9.5T61-13V492H257V-9q0-63-27-112t-76-77T38-226ZM159,538q-43,0-71.5,29.5T59,640t28.5,72.5T159,742q44,0 72-29.5T259,640t-28-72.5T159,538Z" />
      <glyph unicode="k" glyph-name="gid88" horiz-adv-x="580" d="M364,0L227,259L363,492H574L398,229l5,64L584,0H364ZM47,0V732H243V0H47Z" />
      <glyph unicode="l" glyph-name="gid89" horiz-adv-x="290" d="M47,0V732H243V0H47Z" />
      <glyph unicode="m" glyph-name="gid90" horiz-adv-x="885" d="M47,0V492H243V0H47ZM350,0V282q0,25-15,39.5T297,336q-16,0-28.5-6.5t-19-18.5T243,282l-76,28q0,60 26.5,103T265,479t102,23q50,0 90.5-24T522,411.5T546,311V0H350ZM653,0V282q0,25-15,39.5T600,336q-16,0-28.5-6.5t-19-18.5T546,282l-115-1q0,69 27.5,118.5t76.5,76T647,502q59,0 104.5-25T823,405t26-113V0H653Z" />
      <glyph unicode="n" glyph-name="gid91" horiz-adv-x="593" d="M360,0V276q0,29-16.5,44.5T302,336q-17,0-30.5-7t-21-20.5T243,276l-76,34q0,60 26.5,103t73,66T372,502q53,0 94.5-23.5t65.5-64T556,321V0H360ZM47,0V492H243V0H47Z" />
      <glyph unicode="o" glyph-name="gid93" horiz-adv-x="588" d="M295-12q-81,0-144.5,33.5T50.5,114T14,247T50,379t99.5,91.5T294,504t144-33.5T537.5,379T574,247T538,114T439,21.5T295-12Zm-1,172q25,0 43.5,10.5t28.5,30T376,246t-10.5,45.5t-28.5,30T294,332q-24,0-42.5-11t-29-30.5T212,245q0-25 10.5-44.5t29-30T294,160Z" />
      <glyph unicode="p" glyph-name="gid101" horiz-adv-x="610" d="M350-10q-44,0-83,14.5T201,45t-35,60V377q8,34 35,62.5T267,485t83,17q73,0 127.5-32.5t85-90.5T593,246T562.5,113.5T477.5,23T350-10ZM47-210V492H243V371L211,252l27-120V-210H47ZM313,162q24,0 43,11t29.5,30T396,246q0,25-10.5,43.5t-29,29.5T314,330t-42.5-10.5t-29-29.5T232,246q0-24 10-43t28.5-30T313,162Z" />
      <glyph unicode="q" glyph-name="gid103" horiz-adv-x="610" d="M252-10q-69,0-122,33T47,113.5T17,246T47,379t83,90.5T252,502q43,0 79.5-14.5t61-40.5T424,387V105q-7-34-31.5-60t-61-40.5T252-10Zm44,172q37,0 59.5,23.5T378,246q0,25-10,43.5T339.5,319T297,330t-42.5-11T225,289t-11-43t10.5-43T254,173t42-11Zm76-372V132l27,120L372,371V492H563V-210H372Z" />
      <glyph unicode="r" glyph-name="gid104" horiz-adv-x="462" d="M47,0V492H243V0H47ZM243,266l-91,81q38,80 88.5,117.5T367,502q34,0 58.5-8T465,471L355,315q-7,8-20.5,13.5T303,334q-30,0-45-17.5T243,266Z" />
      <glyph unicode="s" glyph-name="gid105" horiz-adv-x="485" d="M243-15q-46,0-92,12T65.5,30T-1,78L102,184q24-24 57.5-38T230,132q17,0 26.5,4.5T266,149q0,14-16.5,21t-42,13t-54,15.5T99,224.5t-42,46T41,346q0,47 26.5,83.5t75,58T255,509q65,0 126-22t97-66L374,315q-25,28-55,37.5T269,362q-19,0-26.5-5.5T235,343q0-11 16-18t41.5-13T346,296t53.5-28T441,220.5T457,144q0-73-58-116T243-15Z" />
      <glyph unicode="t" glyph-name="gid107" horiz-adv-x="420" d="M112,0V694H308V0H112ZM7,332V492H413V332H7Z" />
      <glyph unicode="u" glyph-name="gid108" horiz-adv-x="561" d="M281-12q-72,0-127.5,28T66,94T34,208V492H230V206q0-15 6.5-27t18-18.5T281,154q21,0 35.5,14.5T331,206V492H527V208q0-65-31.5-114.5T408.5,16T281-12Z" />
      <glyph unicode="v" glyph-name="gid113" horiz-adv-x="563" d="M190,0L-3,492H205L318,73H247L359,492H566L373,0H190Z" />
      <glyph unicode="w" glyph-name="gid114" horiz-adv-x="815" d="M144,0L1,492H187l79-358l-55-1L314,492H499L603,133l-56,1l81,358H814L671,0H484L388,340h40L329,0H144Z" />
      <glyph unicode="x" glyph-name="gid115" horiz-adv-x="563" d="M344,0L249,174l-46,25L7,492H231l96-176l45-23L566,0H344ZM-3,0L201,296L311,179L203,0H-3ZM360,199L250,316L350,492H556L360,199Z" />
      <glyph unicode="y" glyph-name="gid116" horiz-adv-x="549" d="M191,0L-3,492H205L319,73H233L345,492H552L359,0H191ZM84-210L227,113L359,0L276-210H84Z" />
      <glyph unicode="z" glyph-name="gid119" horiz-adv-x="510" d="M21,119L241,373H484L264,119H21ZM21,0V119l117,37H478V0H21ZM38,336V492H484V373L367,336H38Z" />
      <glyph unicode="{" glyph-name="gid181" horiz-adv-x="357" d="M260-96q-93,0-144,46T75,94L86,205q3,27-8,37T39,252H11V387H39q28,0 39,10t8,37L74,542q-10,95 41.5,142.5T260,732h66V595H298q-42,0-55.5-16T232,536l8-87q4-42-4-71t-35-48t-79-31v38q52-10 79-28.5T236,261t4-71l-8-90q-2-27 11-43t55-16h28V-96H260Z" />
      <glyph unicode="|" glyph-name="gid205" horiz-adv-x="317" d="M71-130V782H246V-130H71Z" />
      <glyph unicode="}" glyph-name="gid182" horiz-adv-x="357" d="M87-96H21V41H49q42,0 55,16t11,43l-8,90q-4,42 4,71t35,47.5T225,337V299q-52,12-79,31t-35,48t-4,71l8,87q3,27-10.5,43T49,595H21V732H87q93,0 144.5-47.5T273,542L261,434q-3-27 8-37t39-10h28V252H308q-28,0-39-10t-8-37L272,94Q283-4 231.5-50T87-96Z" />
      <glyph unicode="~" glyph-name="gid222" horiz-adv-x="579" d="M375,256q-35,0-58.5,9t-41,20T241,305t-41,9q-28,0-48.5-12T110,265L14,361q44,54 87,79.5T199,466q32,0 55-9t41-20t36.5-20t42.5-9q28,0 50,10.5T468,457l97-97q-45-55-89.5-79.5T375,256Z" />
      <glyph unicode="&#xa0;" glyph-name="gid159" horiz-adv-x="180" />
      <glyph unicode="&#xa1;" glyph-name="gid166" horiz-adv-x="305" d="M45-210L80,207H225l35-417H45ZM153,281q-47,0-78,32.5T44,392q0,47 31,78.5T153,502t77.5-31.5T261,392q0-46-30.5-78.5T153,281Z" />
      <glyph unicode="&#xa2;" glyph-name="gid207" horiz-adv-x="505" d="M296,98q-80,0-144,33T51,222.5T14,355q0,75 37.5,133.5t102,92T299,614q58,0 104.5-18T490,541L367,418q-13,12-29,18t-39,6q-24,0-43.5-10.5T224,402t-12-45t12-45.5T256,281t43-11q26,0 43,8t30,22L495,177q-43-40-90-59.5T296,98ZM212,10V702H352V10H212Z" />
      <glyph unicode="&#xa3;" glyph-name="gid211" horiz-adv-x="637" d="M147,0V502q0,70 32.5,124t90,85T400,742q64,0 119-25t87-69L483,525q-16,23-31,32t-37,9q-21,0-36.5-8.5t-23.5-24T347,495V0H147ZM48,0V170H583V0H48Zm0,285V425H512V285H48Z" />
      <glyph unicode="&#xa4;" glyph-name="gid208" horiz-adv-x="602" d="M302,146q-68,0-121,27T97.5,247.5T67,356T97,464t83,74t121,27q69,0 121.5-27T505,464t30-108q0-60-30-107.5t-82.5-75T302,146ZM139,95L40,194L157,311l99-99L139,95ZM301,302q16,0 28.5,6T349,326t7,29q0,18-7.5,30T329,403t-28,6q-15,0-27.5-7t-20-19T246,354q0-16 7.5-27.5t20-18T301,302ZM463,95L346,212l99,99L562,194L463,95ZM157,401L40,518l99,99L256,500l-99-99Zm288,0l-99,99L463,617l99-99L445,401Z" />
      <glyph unicode="&#xa5;" glyph-name="gid212" horiz-adv-x="701" d="M275,245L44,712H254L409,331H297L452,712H657L424,245H275ZM252,0V318H452V0H252ZM242,473l22-100H62V473H242ZM62,228V328H639V228H62ZM456,373l33,100H639V373H456Z" />
      <glyph unicode="&#xa6;" glyph-name="gid206" horiz-adv-x="317" d="M71,397V782H246V397H71Zm0-527V255H246V-130H71Z" />
      <glyph unicode="&#xa7;" glyph-name="gid200" horiz-adv-x="561" d="M289,148L278,264q23,0 36,7.5T327,294q0,20-18.5,30.5t-47,18.5t-61,19t-61,30.5t-47,53T74,533q0,56 28,98.5T181.5,698T301,722q69,0 133-26t102-77L429,508q-26,32-59,45t-58,13q-24,0-34.5-8T267,536q0-17 18-26.5T331.5,492T392,473.5T452.5,445T499,395.5T517,315q0-47-28-85t-79-60T289,148ZM260-122q-69,0-133,26T25-19L132,92q26-32 59-45t58-13q24,0 34.5,8.5T294,64q0,17-18,26.5T229.5,108T169,126.5T108.5,155T62,204.5T44,285q0,48 28,85.5T151,430t121,22l11-116q-22,0-35.5-7.5T234,306q0-19 18.5-30t47-19t61-19t61-30.5t47-53T487,67q0-55-28-98T380-98T260-122Z" />
      <glyph unicode="&#xa8;" glyph-name="gid238" horiz-adv-x="530" d="M150,538q-43,0-71.5,29.5T50,640t28.5,72.5T150,742q44,0 72-29.5T250,640t-28-72.5T150,538Zm230,0q-43,0-71.5,29.5T280,640t28.5,72.5T380,742q44,0 72-29.5T480,640t-28-72.5T380,538Z" />
      <glyph unicode="&#xa9;" glyph-name="gid201" horiz-adv-x="797" d="M399-10q-80,0-146.5,28.5T137,97T61,214.5T34,360q0,77 26.5,143.5t75,116.5t115,78T397,726q81,0 148-28t116-78t75.5-116.5T763,359T736.5,214t-75-117.5T546,18T399-10Zm14,160q-65,0-117.5,27t-83,73.5T182,358q0,60 31,107t84,74t119,27q47,0 84-14t70-43L461,400q-8,8-18,11.5T416,415q-16,0-29.5-7T365,388.5T357,359t8.5-30t22-20.5T416,301q17,0 28.5,5T466,322L575,213q-37-34-75.5-48.5T413,150ZM397,53q89,0 157,40.5t106,110T698,360q0,85-38,153.5t-106,109T397,663q-88,0-155.5-40t-105-108.5T99,360q0-87 38-156.5t105-110T397,53Z" />
      <glyph unicode="&#xaa;" glyph-name="gid128" horiz-adv-x="367" d="M151,410q-41,0-73,19.5T28,484T10,564t18,79.5T78,698t73,20q38,0 67-19t36-49V478q-7-30-36-49t-67-19Zm27,105q22,0 35,13.5T226,564q0,21-13.5,35T179,613q-21,0-35-14t-14-35q0-22 14-35.5T178,515Zm44-99v79l17,72l-17,72v73H339V416H222Z" />
      <glyph unicode="&#xab;" glyph-name="gid191" horiz-adv-x="544" d="M115,62L15,247L115,432H290L185,247L290,62H115Zm240,0L255,247L355,432H530L425,247L530,62H355Z" />
      <glyph unicode="&#xac;" glyph-name="gid223" horiz-adv-x="579" d="M45,317V471H534V317H45ZM376,441H534V168H376V441Z" />
      <glyph unicode="&#xae;" glyph-name="gid202" horiz-adv-x="534" d="M267,264q-66,0-117,30.5t-80.5,83T40,495q0,64 29,115.5T149,692t117,30q67,0 118.5-30.5t80.5-82T494,494T465,377.5t-80-83T267,264ZM190,390V604h60V390H190Zm115,0l-58,91l54,12l72-103H305Zm-39-72q52,0 91,23t61,63.5T440,495q0,49-22,88t-61,62.5T266,669q-51,0-89.5-23t-60-62.5T95,495q0-50 21.5-90.5T177,341t89-23ZM238,475v42h37q12,0 18.5,6t6.5,16t-6.5,15.5T275,560H238v44h46q32,0 53.5-18T359,539q0-28-21.5-46T281,475H238Z" />
      <glyph unicode="&#xaf;" glyph-name="gid244" horiz-adv-x="472" d="M40,712H432V575H40V712Z" />
      <glyph unicode="&#xb0;" glyph-name="gid204" horiz-adv-x="399" d="M200,377q-52,0-91.5,23t-62,61.5T24,549t22.5,88t62,62T200,722t91-23t61.5-62T375,549t-22.5-87.5T291,400t-91-23Zm0,129q18,0 30.5,12.5T243,549q0,19-12.5,31.5T200,593q-19,0-31.5-12.5T156,549q0-18 12.5-30.5T200,506Z" />
      <glyph unicode="&#xb1;" glyph-name="gid221" horiz-adv-x="579" d="M45,337V491H534V337H45ZM211,582H369V248H211V582ZM45,67V221H534V67H45Z" />
      <glyph unicode="&#xb2;" glyph-name="gid155" horiz-adv-x="339" d="M20,419L170,567q3,2 5,7t2,9q0,11-7.5,18.5T148,609q-12,0-23-9T97,568L13,645q23,36 61.5,54.5T161,718q68,0 106.5-34T306,590q0-28-12-55.5T256,484l-81-72L20,419Zm0-69v69l109,37H313V350H20Z" />
      <glyph unicode="&#xb3;" glyph-name="gid156" horiz-adv-x="329" d="M143,343q-40,0-75.5,13T7,392l81,79q7-8 22.5-14.5T141,450t26.5,6.5T179,476q0,12-12,19t-34,7q-13,0-24.5-1.5T93,497l58,70q20,3 36.5,6t26.5,3q39,0 65.5-27T306,473q0-58-44.5-94T143,343ZM93,497v68l64,78H294l-66-76L93,497ZM39,605V712H294V643l-93-38H39Z" />
      <glyph unicode="&#xb4;" glyph-name="gid240" horiz-adv-x="353" d="M90,532L40,629L230,764l83-152L90,532Z" />
      <glyph unicode="&#xb5;" glyph-name="gid225" horiz-adv-x="610" d="M71-200V492H267V-200H71ZM367-10q-90,0-133,56T191,192l76,20q0-32 16-45t35-13t34.5,13T368,212V492H564V181q0-58-27-100.5T465.5,14T367-10Z" />
      <glyph unicode="&#xb6;" glyph-name="gid199" horiz-adv-x="717" d="M411,250H273q-68,0-124,27.5T60.5,357T28,481q0,73 32.5,124.5t88.5,79T273,712H693V568H282q-22,0-42-9.5t-32-29T196,481t12-48.5t32-29t42-9.5H411V250Zm32-350H293V712H443V-100Zm190,0H483V712H633V-100Z" />
      <glyph unicode="&#xb7;" glyph-name="gid169" horiz-adv-x="217" d="M109,261q-47,0-78,32T0,371q0,47 31,79t78,32t77.5-32T217,371q0-46-30.5-78T109,261Z" />
      <glyph unicode="&#xb8;" glyph-name="gid245" horiz-adv-x="332" d="M161-220q-43,0-71.5,9.5T30-184l50,67q15-9 30-13.5t29-4.5q16,0 22.5,5.5T168-116t-11,13.5T123-97H111L145,11h93L209-63L161-22q71,0 106-26.5T302-121q0-42-38-70.5T161-220Z" />
      <glyph unicode="&#xb9;" glyph-name="gid154" horiz-adv-x="264" d="M77,350V712H207V350H77ZM13,605V712H202V605H13Z" />
      <glyph unicode="&#xba;" glyph-name="gid129" horiz-adv-x="353" d="M177,408q-48,0-86.5,20T30,483.5T8,563q0,45 22,80t60,55t87,20t86.5-20T323,643t22-80q0-44-22-79.5T263.5,428T177,408Zm0,105q22,0 34.5,14T224,563q0,23-13,36.5T177,613q-22,0-35-14t-13-37q0-22 13-35.5T177,513Z" />
      <glyph unicode="&#xbb;" glyph-name="gid192" horiz-adv-x="544" d="M254,62L359,247L254,432H429L529,247L429,62H254ZM14,62L119,247L14,432H189L289,247L189,62H14Z" />
      <glyph unicode="&#xbc;" glyph-name="gid152" horiz-adv-x="700" d="M279,320l67-65L121-10L10,101L279,320Zm128,72l-67,65L565,722L676,611L407,392ZM115,350V712H245V350H115ZM51,605V712H240V605H51ZM366,121l96,241H590L492,121H366Zm0-68v68l32,38H677V53H366ZM541,0V206H659V0H541Z" />
      <glyph unicode="&#xbd;" glyph-name="gid151" horiz-adv-x="700" d="M269,320l67-65L121-10L10,101L269,320Zm138,72l-67,65L565,722L676,611L407,392ZM115,350V712H245V350H115ZM51,605V712H240V605H51ZM372,69L522,217q3,2 5,7t2,9q0,11-7.5,18.5T500,259q-12,0-23-9t-28-32l-84,77q23,36 61.5,54.5T513,368q68,0 106.5-34T658,240q0-28-12-55.5T608,134L527,62L372,69Zm0-69V69l109,37H665V0H372Z" />
      <glyph unicode="&#xbe;" glyph-name="gid153" horiz-adv-x="696" d="M258,330l67-65L120-10L9,101L258,330Zm178,52l-67,65L564,722L675,611L436,382ZM170,343q-40,0-75.5,13T34,392l81,79q7-8 22.5-14.5T168,450t26.5,6.5T206,476q0,12-12,19t-34,7q-13,0-24.5-1.5T120,497l58,70q20,3 36.5,6t26.5,3q39,0 65.5-27T333,473q0-58-44.5-94T170,343ZM120,497v68l64,78H321l-66-76L120,497ZM66,605V712H321V643l-93-38H66ZM355,121l96,241H579L481,121H355Zm0-68v68l32,38H666V53H355ZM530,0V206H648V0H530Z" />
      <glyph unicode="&#xbf;" glyph-name="gid168" horiz-adv-x="493" d="M251-222q-67,0-118.5,26T52-124.5T23-21q0,56 25,97t66.5,67.5T206,181l-53-50l8,81H307L322,54H264q-25,0-41-12.5T207,6q0-15 7-25.5t19-16T260-41q31,0 58.5,20T364,26L480-91q-30-54-87.5-92.5T251-222ZM234,281q-46,0-77,32.5T126,392q0,47 31,78.5T234,502q47,0 78-31.5T343,392q0-46-31-78.5T234,281Z" />
      <glyph unicode="&#xc0;" glyph-name="gid6" horiz-adv-x="755" d="M6,0L277,712H481L749,0H541L342,605h72L210,0H6ZM182,120V276H580V120H182ZM444,762L221,842l83,152L494,859l-50-97Z" />
      <glyph unicode="&#xc1;" glyph-name="gid2" horiz-adv-x="755" d="M6,0L277,712H481L749,0H541L342,605h72L210,0H6ZM182,120V276H580V120H182ZM291,752l-50,97L431,984l83-152L291,752Z" />
      <glyph unicode="&#xc2;" glyph-name="gid4" horiz-adv-x="755" d="M6,0L277,712H481L749,0H541L342,605h72L210,0H6ZM182,120V276H580V120H182Zm43,627l-50,82L331,964h93L580,829l-50-82L299,858H457L225,747Z" />
      <glyph unicode="&#xc3;" glyph-name="gid8" horiz-adv-x="755" d="M6,0L277,712H481L749,0H541L342,605h72L210,0H6ZM182,120V276H580V120H182ZM452,754q-31,0-55,10.5t-44,21T312,796q-22,0-39-10t-31-31l-86,86q28,53 64,75t83,22q32,0 55.5-10.5t43.5-21T443,896q23,0 40,10t30,31l86-86q-28-52-64-74.5T452,754Z" />
      <glyph unicode="&#xc4;" glyph-name="gid5" horiz-adv-x="755" d="M6,0L277,712H481L749,0H541L342,605h72L210,0H6ZM182,120V276H580V120H182Zm81,638q-43,0-71.5,29.5T163,860t28.5,72.5T263,962q44,0 72-29.5T363,860t-28-72.5T263,758Zm230,0q-43,0-71.5,29.5T393,860t28.5,72.5T493,962q44,0 72-29.5T593,860t-28-72.5T493,758Z" />
      <glyph unicode="&#xc5;" glyph-name="gid7" horiz-adv-x="755" d="M6,0L277,712H481L749,0H541L342,605h72L210,0H6ZM182,120V276H580V120H182ZM378,658q-39,0-70,18t-49,48.5T241,793t18,68.5T308,910t70,18q38,0 69-18t49-48.5T514,793t-18-68.5T447,676t-69-18Zm0,91q18,0 30,12.5T420,793t-12,31.5T378,837q-19,0-31-12.5T335,793t12-31.5T378,749Z" />
      <glyph unicode="&#xc6;" glyph-name="gid9" horiz-adv-x="1006" d="M6,0L277,712H503V546H394L210,0H6ZM182,170V326H540V170H182ZM618,0V166H970V0H618ZM456,0V712H656V0H456ZM618,282V444H933V282H618Zm0,264V712H964V546H618Z" />
      <glyph unicode="&#xc7;" glyph-name="gid12" horiz-adv-x="695" d="M411-12q-82,0-152.5,27.5T135,93T52.5,210.5T23,357q0,80 29.5,147t82,116T257,696.5T409,724q83,0 152-26t120-72L548,492q-24,26-58.5,41T409,548q-40,0-73.5-13T278,497t-37.5-60.5T227,357q0-45 13.5-80.5T278,216t57.5-38.5T409,164q45,0 80.5,14T551,219L685,85Q632,39 566,13.5T411-12ZM354-220q-43,0-71.5,9.5T223-184l50,67q15-9 30-13.5t29-4.5q16,0 22.5,5.5T361-116t-11,13.5T316-97H304L338,11h93L402-63L354-22q71,0 106-26.5T495-121q0-42-38-70.5T354-220Z" />
      <glyph unicode="&#xc8;" glyph-name="gid19" horiz-adv-x="639" d="M59,0V712H259V0H59ZM221,0V166H603V0H221Zm0,282V444H566V282H221Zm0,264V712H597V546H221ZM406,762L183,842l83,152L456,859l-50-97Z" />
      <glyph unicode="&#xc9;" glyph-name="gid16" horiz-adv-x="639" d="M59,0V712H259V0H59ZM221,0V166H603V0H221Zm0,282V444H566V282H221Zm0,264V712H597V546H221Zm32,206l-50,97L393,984l83-152L253,752Z" />
      <glyph unicode="&#xca;" glyph-name="gid17" horiz-adv-x="639" d="M59,0V712H259V0H59ZM221,0V166H603V0H221Zm0,282V444H566V282H221Zm0,264V712H597V546H221ZM187,747l-50,82L293,964h93L542,829l-50-82L261,858H419L187,747Z" />
      <glyph unicode="&#xcb;" glyph-name="gid18" horiz-adv-x="639" d="M59,0V712H259V0H59ZM221,0V166H603V0H221Zm0,282V444H566V282H221Zm0,264V712H597V546H221Zm4,212q-43,0-71.5,29.5T125,860t28.5,72.5T225,962q44,0 72-29.5T325,860t-28-72.5T225,758Zm230,0q-43,0-71.5,29.5T355,860t28.5,72.5T455,962q44,0 72-29.5T555,860t-28-72.5T455,758Z" />
      <glyph unicode="&#xcc;" glyph-name="gid27" horiz-adv-x="318" d="M59,0V712H259V0H59ZM225,762L2,842L85,994L275,859l-50-97Z" />
      <glyph unicode="&#xcd;" glyph-name="gid24" horiz-adv-x="318" d="M59,0V712H259V0H59ZM72,752L22,849L212,984l83-152L72,752Z" />
      <glyph unicode="&#xce;" glyph-name="gid25" horiz-adv-x="318" d="M59,0V712H259V0H59ZM6,747l-50,82L112,964h93L361,829l-50-82L80,858H238L6,747Z" />
      <glyph unicode="&#xcf;" glyph-name="gid26" horiz-adv-x="318" d="M59,0V712H259V0H59ZM44,758q-43,0-71.5,29.5T-56,860t28.5,72.5T44,962q44,0 72-29.5T144,860t-28-72.5T44,758Zm230,0q-43,0-71.5,29.5T174,860t28.5,72.5T274,962q44,0 72-29.5T374,860t-28-72.5T274,758Z" />
      <glyph unicode="&#xd0;" glyph-name="gid14" horiz-adv-x="788" d="M18,430H403V285H18V430ZM213,0V170H379q56,0 97,20.5T539,253t22,104T538.5,460t-63,61.5T379,542H203V712H379q84,0 154.5-25T656,615t80.5-112.5T765,356T736.5,209.5T656,97T534,25T381,0H213ZM79,0V712H279V0H79Z" />
      <glyph unicode="&#xd1;" glyph-name="gid33" horiz-adv-x="758" d="M59,0V712H199l60-150V0H59ZM549,0L136,519l63,193L612,193L549,0Zm0,0L499,158V712H699V0H549ZM453,754q-31,0-55,10.5t-44,21T313,796q-22,0-39-10t-31-31l-86,86q28,53 64,75t83,22q32,0 55.5-10.5t43.5-21T444,896q23,0 40,10t30,31l86-86q-28-52-64-74.5T453,754Z" />
      <glyph unicode="&#xd2;" glyph-name="gid38" horiz-adv-x="818" d="M411-14q-84,0-154.5,28t-123,78T52,210T23,357q0,80 28.5,147T132,621t122.5,77.5T409,726t154.5-27.5T686,621t80.5-117.5T795,356q0-79-28.5-146.5T686,91.5t-122-78T411-14Zm-2,176q56,0 97,24t63,68t22,103q0,44-12.5,79.5t-36.5,61t-57.5,39T409,550q-56,0-97-23.5t-63-67T227,357q0-45 12.5-81T276,214.5t57.5-39T409,162Zm66,600L252,842l83,152L525,859l-50-97Z" />
      <glyph unicode="&#xd3;" glyph-name="gid35" horiz-adv-x="818" d="M411-14q-84,0-154.5,28t-123,78T52,210T23,357q0,80 28.5,147T132,621t122.5,77.5T409,726t154.5-27.5T686,621t80.5-117.5T795,356q0-79-28.5-146.5T686,91.5t-122-78T411-14Zm-2,176q56,0 97,24t63,68t22,103q0,44-12.5,79.5t-36.5,61t-57.5,39T409,550q-56,0-97-23.5t-63-67T227,357q0-45 12.5-81T276,214.5t57.5-39T409,162ZM322,752l-50,97L462,984l83-152L322,752Z" />
      <glyph unicode="&#xd4;" glyph-name="gid36" horiz-adv-x="818" d="M411-14q-84,0-154.5,28t-123,78T52,210T23,357q0,80 28.5,147T132,621t122.5,77.5T409,726t154.5-27.5T686,621t80.5-117.5T795,356q0-79-28.5-146.5T686,91.5t-122-78T411-14Zm-2,176q56,0 97,24t63,68t22,103q0,44-12.5,79.5t-36.5,61t-57.5,39T409,550q-56,0-97-23.5t-63-67T227,357q0-45 12.5-81T276,214.5t57.5-39T409,162ZM256,747l-50,82L362,964h93L611,829l-50-82L330,858H488L256,747Z" />
      <glyph unicode="&#xd5;" glyph-name="gid40" horiz-adv-x="818" d="M411-14q-84,0-154.5,28t-123,78T52,210T23,357q0,80 28.5,147T132,621t122.5,77.5T409,726t154.5-27.5T686,621t80.5-117.5T795,356q0-79-28.5-146.5T686,91.5t-122-78T411-14Zm-2,176q56,0 97,24t63,68t22,103q0,44-12.5,79.5t-36.5,61t-57.5,39T409,550q-56,0-97-23.5t-63-67T227,357q0-45 12.5-81T276,214.5t57.5-39T409,162Zm74,592q-31,0-55,10.5t-44,21T343,796q-22,0-39-10t-31-31l-86,86q28,53 64,75t83,22q32,0 55.5-10.5t43.5-21T474,896q23,0 40,10t30,31l86-86q-28-52-64-74.5T483,754Z" />
      <glyph unicode="&#xd6;" glyph-name="gid37" horiz-adv-x="818" d="M411-14q-84,0-154.5,28t-123,78T52,210T23,357q0,80 28.5,147T132,621t122.5,77.5T409,726t154.5-27.5T686,621t80.5-117.5T795,356q0-79-28.5-146.5T686,91.5t-122-78T411-14Zm-2,176q56,0 97,24t63,68t22,103q0,44-12.5,79.5t-36.5,61t-57.5,39T409,550q-56,0-97-23.5t-63-67T227,357q0-45 12.5-81T276,214.5t57.5-39T409,162ZM294,758q-43,0-71.5,29.5T194,860t28.5,72.5T294,962q44,0 72-29.5T394,860t-28-72.5T294,758Zm230,0q-43,0-71.5,29.5T424,860t28.5,72.5T524,962q44,0 72-29.5T624,860t-28-72.5T524,758Z" />
      <glyph unicode="&#xd7;" glyph-name="gid216" horiz-adv-x="579" d="M150,83L38,195L430,586L542,475L150,83Zm270,8L46,465L158,577L532,203L420,91Z" />
      <glyph unicode="&#xd8;" glyph-name="gid39" horiz-adv-x="818" d="M685,753L806,632L133-41L12,80L685,753ZM411-14q-84,0-154.5,28t-123,78T52,210T23,357q0,80 28.5,147T132,621t122.5,77.5T409,726t154.5-27.5T686,621t80.5-117.5T795,356q0-79-28.5-146.5T686,91.5t-122-78T411-14Zm-2,176q56,0 97,24t63,68t22,103q0,44-12.5,79.5t-36.5,61t-57.5,39T409,550q-56,0-97-23.5t-63-67T227,357q0-45 12.5-81T276,214.5t57.5-39T409,162Z" />
      <glyph unicode="&#xd9;" glyph-name="gid52" horiz-adv-x="714" d="M358-12q-94,0-164,38.5T85,133T46,289V712H246V271q0-34 15-58t40.5-36.5T358,164q32,0 56.5,12.5t38.5,36T467,270V712H668V288q0-88-38.5-155.5t-108-106T358-12Zm65,774L200,842l83,152L473,859l-50-97Z" />
      <glyph unicode="&#xda;" glyph-name="gid49" horiz-adv-x="714" d="M358-12q-94,0-164,38.5T85,133T46,289V712H246V271q0-34 15-58t40.5-36.5T358,164q32,0 56.5,12.5t38.5,36T467,270V712H668V288q0-88-38.5-155.5t-108-106T358-12ZM270,752l-50,97L410,984l83-152L270,752Z" />
      <glyph unicode="&#xdb;" glyph-name="gid50" horiz-adv-x="714" d="M358-12q-94,0-164,38.5T85,133T46,289V712H246V271q0-34 15-58t40.5-36.5T358,164q32,0 56.5,12.5t38.5,36T467,270V712H668V288q0-88-38.5-155.5t-108-106T358-12ZM204,747l-50,82L310,964h93L559,829l-50-82L278,858H436L204,747Z" />
      <glyph unicode="&#xdc;" glyph-name="gid51" horiz-adv-x="714" d="M358-12q-94,0-164,38.5T85,133T46,289V712H246V271q0-34 15-58t40.5-36.5T358,164q32,0 56.5,12.5t38.5,36T467,270V712H668V288q0-88-38.5-155.5t-108-106T358-12ZM242,758q-43,0-71.5,29.5T142,860t28.5,72.5T242,962q44,0 72-29.5T342,860t-28-72.5T242,758Zm230,0q-43,0-71.5,29.5T372,860t28.5,72.5T472,962q44,0 72-29.5T572,860t-28-72.5T472,758Z" />
      <glyph unicode="&#xdd;" glyph-name="gid57" horiz-adv-x="701" d="M275,245L4,712H234L439,331H267L472,712H697L424,245H275ZM252,0V318H452V0H252Zm12,752l-50,97L404,984l83-152L264,752Z" />
      <glyph unicode="&#xde;" glyph-name="gid43" horiz-adv-x="652" d="M221,130V274H350q23,0 42.5,9.5t31.5,29T436,361t-12,48.5t-31.5,29T350,448H221V592H389q69,0 124.5-27.5t88-79T634,361q0-72-32.5-124t-88-79.5T389,130H221ZM59,0V712H259V0H59Z" />
      <glyph unicode="&#xdf;" glyph-name="gid106" horiz-adv-x="605" d="M346-9q-28,0-50,6T255,13l38,144q6-2 12.5-3.5T320,152q24,0 42,10t28,28t10,40q0,23-11.5,40.5t-32,28T308,309H280V459h16q18,0 32,7.5T349.5,488t7.5,31t-7,30.5t-20,21T298,578q-28,0-44.5-17.5T237,507V0H47V494q0,69 30,124.5t87.5,88T305,739q78,0 131-30.5t80-77T543,535q0-46-16-84t-56-65l-22,34q52-18 83.5-48T578,303.5T592,220q0-41-16.5-81.5T527,64.5T449.5,11T346-9Z" />
      <glyph unicode="&#xe0;" glyph-name="gid63" horiz-adv-x="610" d="M252-10q-69,0-122,33T47,113.5T17,246T47,379t83,90.5T252,502q43,0 79.5-14.5t61-40.5T424,387V105q-7-34-31.5-60t-61-40.5T252-10Zm44,172q37,0 59.5,23.5T378,246q0,25-10,43.5T339.5,319T297,330t-42.5-11T225,289t-11-43t10.5-43T254,173t42-11ZM372,0V132l27,120L372,371V492H563V0H372Zm9,542L158,622l83,152L431,639l-50-97Z" />
      <glyph unicode="&#xe1;" glyph-name="gid60" horiz-adv-x="610" d="M252-10q-69,0-122,33T47,113.5T17,246T47,379t83,90.5T252,502q43,0 79.5-14.5t61-40.5T424,387V105q-7-34-31.5-60t-61-40.5T252-10Zm44,172q37,0 59.5,23.5T378,246q0,25-10,43.5T339.5,319T297,330t-42.5-11T225,289t-11-43t10.5-43T254,173t42-11ZM372,0V132l27,120L372,371V492H563V0H372ZM228,532l-50,97L368,764l83-152L228,532Z" />
      <glyph unicode="&#xe2;" glyph-name="gid61" horiz-adv-x="610" d="M252-10q-69,0-122,33T47,113.5T17,246T47,379t83,90.5T252,502q43,0 79.5-14.5t61-40.5T424,387V105q-7-34-31.5-60t-61-40.5T252-10Zm44,172q37,0 59.5,23.5T378,246q0,25-10,43.5T339.5,319T297,330t-42.5-11T225,289t-11-43t10.5-43T254,173t42-11ZM372,0V132l27,120L372,371V492H563V0H372ZM162,527l-50,82L268,744h93L517,609l-50-82L236,638H394L162,527Z" />
      <glyph unicode="&#xe3;" glyph-name="gid65" horiz-adv-x="610" d="M252-10q-69,0-122,33T47,113.5T17,246T47,379t83,90.5T252,502q43,0 79.5-14.5t61-40.5T424,387V105q-7-34-31.5-60t-61-40.5T252-10Zm44,172q37,0 59.5,23.5T378,246q0,25-10,43.5T339.5,319T297,330t-42.5-11T225,289t-11-43t10.5-43T254,173t42-11ZM372,0V132l27,120L372,371V492H563V0H372Zm17,534q-31,0-55,10.5t-44,21T249,576q-22,0-39-10t-31-31L93,621q28,53 64,75t83,22q32,0 55.5-10.5t43.5-21T380,676q23,0 40,10t30,31l86-86q-28-52-64-74.5T389,534Z" />
      <glyph unicode="&#xe4;" glyph-name="gid62" horiz-adv-x="610" d="M252-10q-69,0-122,33T47,113.5T17,246T47,379t83,90.5T252,502q43,0 79.5-14.5t61-40.5T424,387V105q-7-34-31.5-60t-61-40.5T252-10Zm44,172q37,0 59.5,23.5T378,246q0,25-10,43.5T339.5,319T297,330t-42.5-11T225,289t-11-43t10.5-43T254,173t42-11ZM372,0V132l27,120L372,371V492H563V0H372ZM200,538q-43,0-71.5,29.5T100,640t28.5,72.5T200,742q44,0 72-29.5T300,640t-28-72.5T200,538Zm230,0q-43,0-71.5,29.5T330,640t28.5,72.5T430,742q44,0 72-29.5T530,640t-28-72.5T430,538Z" />
      <glyph unicode="&#xe5;" glyph-name="gid64" horiz-adv-x="610" d="M252-10q-69,0-122,33T47,113.5T17,246T47,379t83,90.5T252,502q43,0 79.5-14.5t61-40.5T424,387V105q-7-34-31.5-60t-61-40.5T252-10Zm44,172q37,0 59.5,23.5T378,246q0,25-10,43.5T339.5,319T297,330t-42.5-11T225,289t-11-43t10.5-43T254,173t42-11ZM372,0V132l27,120L372,371V492H563V0H372ZM315,528q-39,0-70,18t-49,48.5T178,663t18,68.5T245,780t70,18q38,0 69-18t49-48.5T451,663t-18-68.5T384,546t-69-18Zm0,91q18,0 30,12.5T357,663t-12,31.5T315,707q-19,0-31-12.5T272,663t12-31.5T315,619Z" />
      <glyph unicode="&#xe6;" glyph-name="gid66" horiz-adv-x="949" d="M691-12q-86,0-151,32.5t-101.5,91T402,246q0,75 35.5,133T535,470.5T675,504q77,0 136-31.5T903.5,385T937,257q0-15-1.5-31.5T929,187l-444-3V304l371,3l-91-53q0,40-9.5,65.5T727,358t-48,13q-30,0-52-15t-33.5-43T582,245q0-41 12.5-68.5T631,135t60-14q35,0 61.5,11.5T801,169l98-97Q862,30 810,9T691-12ZM252-10q-69,0-122,33T47,113.5T17,246T47,379t83,90.5T252,502q43,0 79.5-14.5t61-40.5T424,387V105q-7-34-31.5-60t-61-40.5T252-10Zm44,172q37,0 59.5,23.5T378,246q0,25-10,43.5T339.5,319T297,330t-42.5-11T225,289t-11-43t10.5-43T254,173t42-11ZM372,0V132l27,120L372,371V492H563V0H372Z" />
      <glyph unicode="&#xe7;" glyph-name="gid69" horiz-adv-x="505" d="M296-12q-80,0-144,33T51,112.5T14,245q0,75 37.5,133.5t102,92T299,504q58,0 104.5-18T490,431L367,308q-13,12-29,18t-39,6q-24,0-43.5-10.5T224,292t-12-45t12-45.5T256,171t43-11q26,0 43,8t30,22L495,67Q452,27 405,7.5T296-12ZM253-220q-43,0-71.5,9.5T122-184l50,67q15-9 30-13.5t29-4.5q16,0 22.5,5.5T260-116t-11,13.5T215-97H203L237,11h93L301-63L253-22q71,0 106-26.5T394-121q0-42-38-70.5T253-220Z" />
      <glyph unicode="&#xe8;" glyph-name="gid76" horiz-adv-x="561" d="M303-12q-86,0-151,32.5t-101.5,91T14,246q0,75 35.5,133T147,470.5T287,504q77,0 136-31.5T515.5,385T549,257q0-15-1.5-31.5T541,187L97,184V304l371,3l-91-53q0,40-9.5,65.5T339,358t-48,13q-30,0-52-15t-33.5-43T194,245q0-41 12.5-68.5T243,135t60-14q35,0 61.5,11.5T413,169l98-97Q474,30 422,9T303-12Zm52,554L132,622l83,152L405,639l-50-97Z" />
      <glyph unicode="&#xe9;" glyph-name="gid73" horiz-adv-x="561" d="M303-12q-86,0-151,32.5t-101.5,91T14,246q0,75 35.5,133T147,470.5T287,504q77,0 136-31.5T515.5,385T549,257q0-15-1.5-31.5T541,187L97,184V304l371,3l-91-53q0,40-9.5,65.5T339,358t-48,13q-30,0-52-15t-33.5-43T194,245q0-41 12.5-68.5T243,135t60-14q35,0 61.5,11.5T413,169l98-97Q474,30 422,9T303-12ZM202,532l-50,97L342,764l83-152L202,532Z" />
      <glyph unicode="&#xea;" glyph-name="gid74" horiz-adv-x="561" d="M303-12q-86,0-151,32.5t-101.5,91T14,246q0,75 35.5,133T147,470.5T287,504q77,0 136-31.5T515.5,385T549,257q0-15-1.5-31.5T541,187L97,184V304l371,3l-91-53q0,40-9.5,65.5T339,358t-48,13q-30,0-52-15t-33.5-43T194,245q0-41 12.5-68.5T243,135t60-14q35,0 61.5,11.5T413,169l98-97Q474,30 422,9T303-12ZM136,527L86,609L242,744h93L491,609l-50-82L210,638H368L136,527Z" />
      <glyph unicode="&#xeb;" glyph-name="gid75" horiz-adv-x="561" d="M303-12q-86,0-151,32.5t-101.5,91T14,246q0,75 35.5,133T147,470.5T287,504q77,0 136-31.5T515.5,385T549,257q0-15-1.5-31.5T541,187L97,184V304l371,3l-91-53q0,40-9.5,65.5T339,358t-48,13q-30,0-52-15t-33.5-43T194,245q0-41 12.5-68.5T243,135t60-14q35,0 61.5,11.5T413,169l98-97Q474,30 422,9T303-12ZM174,538q-43,0-71.5,29.5T74,640t28.5,72.5T174,742q44,0 72-29.5T274,640t-28-72.5T174,538Zm230,0q-43,0-71.5,29.5T304,640t28.5,72.5T404,742q44,0 72-29.5T504,640t-28-72.5T404,538Z" />
      <glyph unicode="&#xec;" glyph-name="gid85" horiz-adv-x="290" d="M47,0V492H243V0H47ZM211,542L-12,622L71,774L261,639l-50-97Z" />
      <glyph unicode="&#xed;" glyph-name="gid82" horiz-adv-x="290" d="M47,0V492H243V0H47ZM58,532L8,629L198,764l83-152L58,532Z" />
      <glyph unicode="&#xee;" glyph-name="gid83" horiz-adv-x="290" d="M47,0V492H243V0H47ZM-8,527l-50,82L98,744h93L347,609l-50-82L66,638H224L-8,527Z" />
      <glyph unicode="&#xef;" glyph-name="gid84" horiz-adv-x="290" d="M47,0V492H243V0H47ZM30,538q-43,0-71.5,29.5T-70,640t28.5,72.5T30,742q44,0 72-29.5T130,640t-28-72.5T30,538Zm230,0q-43,0-71.5,29.5T160,640t28.5,72.5T260,742q44,0 72-29.5T360,640t-28-72.5T260,538Z" />
      <glyph unicode="&#xf0;" glyph-name="gid71" horiz-adv-x="584" d="M292-12q-78,0-140.5,33t-99,89.5T16,238q0,67 33.5,121.5t90,87T265,479q38,0 60-10t37.5-28T395,398l-75-16L81,712H303L510,407q58-85 58-169q0-71-36.5-127.5T433,21T292-12Zm0,166q25,0 44.5,11.5t30.5,32T378,244t-11,46.5t-30.5,32T292,334t-44.5-11.5t-30.5-32T206,244t11-46.5t30.5-32T292,154ZM86,468L50,561L460,712l36-93L86,468Z" />
      <glyph unicode="&#xf1;" glyph-name="gid92" horiz-adv-x="593" d="M360,0V276q0,29-16.5,44.5T302,336q-17,0-30.5-7t-21-20.5T243,276l-76,34q0,60 26.5,103t73,66T372,502q53,0 94.5-23.5t65.5-64T556,321V0H360ZM47,0V492H243V0H47ZM371,534q-31,0-55,10.5t-44,21T231,576q-22,0-39-10t-31-31L75,621q28,53 64,75t83,22q32,0 55.5-10.5t43.5-21T362,676q23,0 40,10t30,31l86-86q-28-52-64-74.5T371,534Z" />
      <glyph unicode="&#xf2;" glyph-name="gid97" horiz-adv-x="588" d="M295-12q-81,0-144.5,33.5T50.5,114T14,247T50,379t99.5,91.5T294,504t144-33.5T537.5,379T574,247T538,114T439,21.5T295-12Zm-1,172q25,0 43.5,10.5t28.5,30T376,246t-10.5,45.5t-28.5,30T294,332q-24,0-42.5-11t-29-30.5T212,245q0-25 10.5-44.5t29-30T294,160Zm66,382L137,622l83,152L410,639l-50-97Z" />
      <glyph unicode="&#xf3;" glyph-name="gid94" horiz-adv-x="588" d="M295-12q-81,0-144.5,33.5T50.5,114T14,247T50,379t99.5,91.5T294,504t144-33.5T537.5,379T574,247T538,114T439,21.5T295-12Zm-1,172q25,0 43.5,10.5t28.5,30T376,246t-10.5,45.5t-28.5,30T294,332q-24,0-42.5-11t-29-30.5T212,245q0-25 10.5-44.5t29-30T294,160ZM207,532l-50,97L347,764l83-152L207,532Z" />
      <glyph unicode="&#xf4;" glyph-name="gid95" horiz-adv-x="588" d="M295-12q-81,0-144.5,33.5T50.5,114T14,247T50,379t99.5,91.5T294,504t144-33.5T537.5,379T574,247T538,114T439,21.5T295-12Zm-1,172q25,0 43.5,10.5t28.5,30T376,246t-10.5,45.5t-28.5,30T294,332q-24,0-42.5-11t-29-30.5T212,245q0-25 10.5-44.5t29-30T294,160ZM141,527L91,609L247,744h93L496,609l-50-82L215,638H373L141,527Z" />
      <glyph unicode="&#xf5;" glyph-name="gid99" horiz-adv-x="588" d="M295-12q-81,0-144.5,33.5T50.5,114T14,247T50,379t99.5,91.5T294,504t144-33.5T537.5,379T574,247T538,114T439,21.5T295-12Zm-1,172q25,0 43.5,10.5t28.5,30T376,246t-10.5,45.5t-28.5,30T294,332q-24,0-42.5-11t-29-30.5T212,245q0-25 10.5-44.5t29-30T294,160Zm74,374q-31,0-55,10.5t-44,21T228,576q-22,0-39-10t-31-31L72,621q28,53 64,75t83,22q32,0 55.5-10.5t43.5-21T359,676q23,0 40,10t30,31l86-86q-28-52-64-74.5T368,534Z" />
      <glyph unicode="&#xf6;" glyph-name="gid96" horiz-adv-x="588" d="M295-12q-81,0-144.5,33.5T50.5,114T14,247T50,379t99.5,91.5T294,504t144-33.5T537.5,379T574,247T538,114T439,21.5T295-12Zm-1,172q25,0 43.5,10.5t28.5,30T376,246t-10.5,45.5t-28.5,30T294,332q-24,0-42.5-11t-29-30.5T212,245q0-25 10.5-44.5t29-30T294,160ZM179,538q-43,0-71.5,29.5T79,640t28.5,72.5T179,742q44,0 72-29.5T279,640t-28-72.5T179,538Zm230,0q-43,0-71.5,29.5T309,640t28.5,72.5T409,742q44,0 72-29.5T509,640t-28-72.5T409,538Z" />
      <glyph unicode="&#xf7;" glyph-name="gid217" horiz-adv-x="579" d="M45,257V411H534V257H45ZM290,441q-41,0-68,28t-27,68q0,41 27,69t68,28t67.5-28T384,537q0-40-26.5-68T290,441Zm0-406q-41,0-68,28t-27,68q0,41 27,69t68,28t67.5-28T384,131q0-40-26.5-68T290,35Z" />
      <glyph unicode="&#xf8;" glyph-name="gid98" horiz-adv-x="588" d="M91-31L19,41L497,520l72-72L91-31ZM293-12q-80,0-143.5,33.5T50,114T14,247T50,379t99.5,91.5T294,504t144-33.5T537.5,379T574,247T537.5,114t-100-92.5T293-12Zm0,141q34,0 59,14.5T391,184t14,61q0,36-14,62.5t-39,41T293,363q-33,0-58.5-14.5T195,308t-14-62q0-35 14-61.5t39-41T293,129Z" />
      <glyph unicode="&#xf9;" glyph-name="gid112" horiz-adv-x="561" d="M281-12q-72,0-127.5,28T66,94T34,208V492H230V206q0-15 6.5-27t18-18.5T281,154q21,0 35.5,14.5T331,206V492H527V208q0-65-31.5-114.5T408.5,16T281-12Zm66,554L124,622l83,152L397,639l-50-97Z" />
      <glyph unicode="&#xfa;" glyph-name="gid109" horiz-adv-x="561" d="M281-12q-72,0-127.5,28T66,94T34,208V492H230V206q0-15 6.5-27t18-18.5T281,154q21,0 35.5,14.5T331,206V492H527V208q0-65-31.5-114.5T408.5,16T281-12ZM194,532l-50,97L334,764l83-152L194,532Z" />
      <glyph unicode="&#xfb;" glyph-name="gid110" horiz-adv-x="561" d="M281-12q-72,0-127.5,28T66,94T34,208V492H230V206q0-15 6.5-27t18-18.5T281,154q21,0 35.5,14.5T331,206V492H527V208q0-65-31.5-114.5T408.5,16T281-12ZM128,527L78,609L234,744h93L483,609l-50-82L202,638H360L128,527Z" />
      <glyph unicode="&#xfc;" glyph-name="gid111" horiz-adv-x="561" d="M281-12q-72,0-127.5,28T66,94T34,208V492H230V206q0-15 6.5-27t18-18.5T281,154q21,0 35.5,14.5T331,206V492H527V208q0-65-31.5-114.5T408.5,16T281-12ZM166,538q-43,0-71.5,29.5T66,640t28.5,72.5T166,742q44,0 72-29.5T266,640t-28-72.5T166,538Zm230,0q-43,0-71.5,29.5T296,640t28.5,72.5T396,742q44,0 72-29.5T496,640t-28-72.5T396,538Z" />
      <glyph unicode="&#xfd;" glyph-name="gid117" horiz-adv-x="549" d="M191,0L-3,492H205L319,73H233L345,492H552L359,0H191ZM84-210L227,113L359,0L276-210H84ZM188,532l-50,97L328,764l83-152L188,532Z" />
      <glyph unicode="&#xfe;" glyph-name="gid102" horiz-adv-x="610" d="M350-10q-44,0-83,14.5T201,45t-35,60V377q8,34 35,62.5T267,485t83,17q73,0 127.5-32.5t85-90.5T593,246T562.5,113.5T477.5,23T350-10ZM47-210V732H243V371L211,252l27-120V-210H47ZM313,162q24,0 43,11t29.5,30T396,246q0,25-10.5,43.5t-29,29.5T314,330t-42.5-10.5t-29-29.5T232,246q0-24 10-43t28.5-30T313,162Z" />
      <glyph unicode="&#xff;" glyph-name="gid118" horiz-adv-x="549" d="M191,0L-3,492H205L319,73H233L345,492H552L359,0H191ZM84-210L227,113L359,0L276-210H84Zm76,748q-43,0-71.5,29.5T60,640t28.5,72.5T160,742q44,0 72-29.5T260,640t-28-72.5T160,538Zm230,0q-43,0-71.5,29.5T290,640t28.5,72.5T390,742q44,0 72-29.5T490,640t-28-72.5T390,538Z" />
      <glyph unicode="&#x2013;" glyph-name="gid176" horiz-adv-x="583" d="M47,178V332H536V178H47Z" />
      <glyph unicode="&#x2014;" glyph-name="gid177" horiz-adv-x="873" d="M47,178V332H826V178H47Z" />
      <glyph unicode="&#x2018;" glyph-name="gid189" horiz-adv-x="271" d="M234,694L156,548l-54-15q9,17 21,28.5T150,573q35,0 63-28t28-72q0-46-31-79t-78-33q-44,0-76.5,32.5T23,473q0,19 7,44t29,65l87,160l88-48Z" />
      <glyph unicode="&#x2019;" glyph-name="gid190" horiz-adv-x="270" d="M36,389l78,146l54,15q-9-17-21-28.5T120,510q-34,0-62.5,28.5T29,610q0,46 31,79t78,33q44,0 76.5-32.5T247,610q0-19-7-44t-29-65L124,341L36,389Z" />
      <glyph unicode="&#x201a;" glyph-name="gid185" horiz-adv-x="290" d="M46-124L124,22l54,15q-9-17-21-28.5T130-3Q96-3 67.5,25.5T39,97q0,46 31,79t78,33q44,0 76.5-32.5T257,97q0-19-7-44T221-12L134-172L46-124Z" />
      <glyph unicode="&#x201c;" glyph-name="gid187" horiz-adv-x="518" d="M234,694L156,548l-54-15q9,17 21,28.5T150,573q35,0 63-28t28-72q0-46-31-79t-78-33q-44,0-76.5,32.5T23,473q0,19 7,44t29,65l87,160l88-48Zm247,0L403,548l-54-15q9,17 21,28.5T397,573q35,0 63-28t28-72q0-46-31-79t-78-33q-44,0-76.5,32.5T270,473q0,19 7,44t29,65l87,160l88-48Z" />
      <glyph unicode="&#x201d;" glyph-name="gid188" horiz-adv-x="517" d="M283,389l78,146l54,15q-9-17-21-28.5T367,510q-34,0-62.5,28.5T276,610q0,46 31,79t78,33q44,0 76.5-32.5T494,610q0-19-7-44t-29-65L371,341l-88,48ZM36,389l78,146l54,15q-9-17-21-28.5T120,510q-34,0-62.5,28.5T29,610q0,46 31,79t78,33q44,0 76.5-32.5T247,610q0-19-7-44t-29-65L124,341L36,389Z" />
      <glyph unicode="&#x201e;" glyph-name="gid186" horiz-adv-x="537" d="M293-124L371,22l54,15q-9-17-21-28.5T377-3q-34,0-62.5,28.5T286,97q0,46 31,79t78,33q44,0 76.5-32.5T504,97q0-19-7-44T468-12L381-172l-88,48ZM46-124L124,22l54,15q-9-17-21-28.5T130-3Q96-3 67.5,25.5T39,97q0,46 31,79t78,33q44,0 76.5-32.5T257,97q0-19-7-44T221-12L134-172L46-124Z" />
      <glyph unicode="&#x2022;" glyph-name="gid170" horiz-adv-x="359" d="M180,233q-40,0-71.5,18.5t-49,50T42,371t17.5,69.5t49,50T180,509t71-18.5t48.5-50T317,371t-17.5-69.5t-48.5-50T180,233Z" />
      <glyph unicode="&#x2039;" glyph-name="gid193" horiz-adv-x="304" d="M115,62L15,247L115,432H290L185,247L290,62H115Z" />
      <glyph unicode="&#x203a;" glyph-name="gid194" horiz-adv-x="304" d="M14,62L119,247L14,432H189L289,247L189,62H14Z" />
    </font>
</defs>
</svg>
